<svg width="32" height="32" viewBox="0 0 32 32" fill="none" xmlns="http://www.w3.org/2000/svg">
<path d="M22.4 3.84009H9.59997C8.07305 3.84246 6.60934 4.45007 5.52965 5.52977C4.44995 6.60947 3.84234 8.07317 3.83997 9.60009V22.4001C3.84234 23.927 4.44995 25.3907 5.52965 26.4704C6.60934 27.5501 8.07305 28.1577 9.59997 28.1601H22.4C23.9269 28.1577 25.3906 27.5501 26.4703 26.4704C27.55 25.3907 28.1576 23.927 28.16 22.4001V9.60009C28.1576 8.07317 27.55 6.60947 26.4703 5.52977C25.3906 4.45007 23.9269 3.84246 22.4 3.84009ZM23.3984 16.6401H19.9936L17.8432 20.8769C17.7911 20.9815 17.7107 21.0693 17.6111 21.1305C17.5115 21.1916 17.3968 21.2234 17.28 21.2225H17.2416C17.1175 21.2182 16.9976 21.1769 16.8973 21.1039C16.7969 21.0309 16.7207 20.9296 16.6784 20.8129L14.0928 14.1441L12.9536 16.2945C12.9027 16.4001 12.8226 16.4888 12.7228 16.5501C12.6229 16.6113 12.5075 16.6426 12.3904 16.6401H8.60157C8.43183 16.6401 8.26904 16.5727 8.14902 16.4526C8.02899 16.3326 7.96157 16.1698 7.96157 16.0001C7.96157 15.8303 8.02899 15.6676 8.14902 15.5475C8.26904 15.4275 8.43183 15.3601 8.60157 15.3601H12.0064L13.6192 12.3137C13.6739 12.203 13.7603 12.111 13.8674 12.0495C13.9746 11.9879 14.0975 11.9596 14.2208 11.9681C14.3442 11.9747 14.463 12.0169 14.563 12.0896C14.6629 12.1623 14.7397 12.2623 14.784 12.3777L17.3568 19.0209L19.0336 15.7057C19.0905 15.6024 19.1738 15.5159 19.275 15.4552C19.3761 15.3945 19.4916 15.3617 19.6096 15.3601H23.3984C23.5681 15.3601 23.7309 15.4275 23.8509 15.5475C23.9709 15.6676 24.0384 15.8303 24.0384 16.0001C24.0384 16.1698 23.9709 16.3326 23.8509 16.4526C23.7309 16.5727 23.5681 16.6401 23.3984 16.6401Z" fill="#FEC64F"/>
</svg>
