<svg width="40" height="40" viewBox="0 0 40 40" fill="none" xmlns="http://www.w3.org/2000/svg">
<path d="M14.3251 34.2002C13.0909 34.1974 11.8852 33.8294 10.86 33.1424C9.83471 32.4555 9.03576 31.4804 8.56385 30.3401C8.09194 29.1997 7.96819 27.9452 8.20821 26.7346C8.44823 25.5241 9.04126 24.4117 9.91256 23.5377L20.5126 12.9252C20.8614 12.5763 21.2755 12.2996 21.7313 12.1108C22.187 11.9221 22.6755 11.8249 23.1688 11.8249C23.6621 11.8249 24.1506 11.9221 24.6064 12.1108C25.0621 12.2996 25.4762 12.5763 25.8251 12.9252C26.1739 13.274 26.4506 13.6881 26.6394 14.1439C26.8282 14.5996 26.9253 15.0881 26.9253 15.5814C26.9253 16.0747 26.8282 16.5632 26.6394 17.019C26.4506 17.4747 26.1739 17.8888 25.8251 18.2377L15.2126 28.8377C15.1005 28.9685 14.9626 29.0748 14.8075 29.1498C14.6524 29.2248 14.4835 29.267 14.3114 29.2736C14.1392 29.2803 13.9676 29.2513 13.8072 29.1884C13.6468 29.1256 13.5011 29.0303 13.3792 28.9085C13.2574 28.7866 13.1621 28.641 13.0993 28.4806C13.0364 28.3201 13.0074 28.1485 13.0141 27.9763C13.0207 27.8042 13.0629 27.6353 13.1379 27.4802C13.2129 27.3251 13.3192 27.1872 13.4501 27.0752L24.0501 16.4627C24.2548 16.2235 24.3619 15.9159 24.3497 15.6013C24.3375 15.2867 24.2071 14.9883 23.9845 14.7657C23.7619 14.5431 23.4635 14.4127 23.1489 14.4005C22.8343 14.3884 22.5267 14.4954 22.2876 14.7002L11.6751 25.3002C10.9706 26.0046 10.5748 26.9601 10.5748 27.9564C10.5748 28.9527 10.9706 29.9082 11.6751 30.6127C12.3795 31.3171 13.335 31.7129 14.3313 31.7129C15.3276 31.7129 16.2831 31.3171 16.9876 30.6127L27.5876 20.0002C28.726 18.8214 29.356 17.2426 29.3418 15.6039C29.3275 13.9652 28.6702 12.3976 27.5114 11.2388C26.3526 10.08 24.785 9.42268 23.1463 9.40844C21.5076 9.3942 19.9288 10.0242 18.7501 11.1627L12.5626 17.4127C12.3284 17.6455 12.0115 17.7761 11.6813 17.7761C11.3511 17.7761 11.0343 17.6455 10.8001 17.4127C10.6829 17.2964 10.5899 17.1582 10.5264 17.0059C10.463 16.8535 10.4303 16.6902 10.4303 16.5252C10.4303 16.3601 10.463 16.1968 10.5264 16.0444C10.5899 15.8921 10.6829 15.7539 10.8001 15.6377L16.9876 9.38765C18.6286 7.74663 20.8543 6.82471 23.1751 6.82471C25.4958 6.82471 27.7215 7.74663 29.3626 9.38765C31.0036 11.0287 31.9255 13.2544 31.9255 15.5752C31.9255 17.8959 31.0036 20.1216 29.3626 21.7627L18.7501 32.3752C18.1686 32.9552 17.4785 33.4149 16.7192 33.728C15.9599 34.0412 15.1464 34.2016 14.3251 34.2002Z" fill="#A098AE"/>
</svg>
