<svg width="24" height="24" viewBox="0 0 24 24" fill="none" xmlns="http://www.w3.org/2000/svg">
<g clip-path="url(#clip0_1031_8)">
<path d="M15.0005 5.25H6.00049C5.6028 5.25045 5.22154 5.40864 4.94033 5.68984C4.65912 5.97105 4.50094 6.35231 4.50049 6.75V21C4.50049 21.1378 4.53846 21.2729 4.61023 21.3906C4.682 21.5082 4.7848 21.6038 4.90733 21.6669C5.02986 21.7299 5.1674 21.758 5.30485 21.748C5.44229 21.738 5.57433 21.6904 5.68646 21.6103L10.4998 18.1717L15.3146 21.6103C15.4267 21.6904 15.5588 21.7381 15.6962 21.748C15.8336 21.758 15.9712 21.7299 16.0937 21.6669C16.2162 21.6038 16.319 21.5082 16.3908 21.3906C16.4625 21.2729 16.5005 21.1378 16.5005 21V6.75C16.5 6.35231 16.3419 5.97105 16.0606 5.68984C15.7794 5.40864 15.3982 5.25045 15.0005 5.25Z" fill="#A098AE"/>
<path d="M18.0005 2.25H8.25049C8.05158 2.25 7.86081 2.32902 7.72016 2.46967C7.57951 2.61032 7.50049 2.80109 7.50049 3C7.50049 3.19891 7.57951 3.38968 7.72016 3.53033C7.86081 3.67098 8.05158 3.75 8.25049 3.75H18.0005V18C18.0005 18.1989 18.0795 18.3897 18.2202 18.5303C18.3608 18.671 18.5516 18.75 18.7505 18.75C18.9494 18.75 19.1402 18.671 19.2808 18.5303C19.4215 18.3897 19.5005 18.1989 19.5005 18V3.75C19.5 3.35231 19.3419 2.97105 19.0606 2.68984C18.7794 2.40864 18.3982 2.25045 18.0005 2.25Z" fill="#A098AE"/>
</g>
<defs>
<clipPath id="clip0_1031_8">
<rect width="24" height="24" fill="white"/>
</clipPath>
</defs>
</svg>
