<svg width="24" height="24" viewBox="0 0 24 24" fill="none" xmlns="http://www.w3.org/2000/svg">
<path d="M19.5 3.35248H18.3825V2.625C18.3825 2.00999 17.88 1.5 17.2575 1.5C16.635 1.5 16.1325 2.00999 16.1325 2.625V3.35248H13.125V2.625C13.125 2.00999 12.6225 1.5 12 1.5C11.3775 1.5 10.875 2.00999 10.875 2.625V3.35248H7.86749V2.625C7.86749 2.00999 7.36501 1.5 6.74249 1.5C6.11998 1.5 5.61749 2.00999 5.61749 2.625V3.35248H4.5C2.22748 3.35248 0.375 5.19749 0.375 7.47748V18.375C0.375 20.6475 2.22748 22.5 4.5 22.5H19.5C21.7725 22.5 23.625 20.6475 23.625 18.375V7.47748C23.625 5.19749 21.7725 3.35248 19.5 3.35248ZM21.375 8.715H2.625V7.47748C2.625 6.44248 3.465 5.60248 4.5 5.60248H5.61749V6.285C5.61749 6.90747 6.11998 7.41 6.74249 7.41C7.36501 7.41 7.86749 6.90747 7.86749 6.285V5.60248H10.875V6.285C10.875 6.90747 11.3775 7.41 12 7.41C12.6225 7.41 13.125 6.90747 13.125 6.285V5.60248H16.1325V6.285C16.1325 6.90747 16.635 7.41 17.2575 7.41C17.88 7.41 18.3825 6.90747 18.3825 6.285V5.60248H19.5C20.535 5.60248 21.375 6.44248 21.375 7.47748V8.715Z" fill="#A098AE"/>
</svg>
