<svg width="32" height="32" viewBox="0 0 32 32" fill="none" xmlns="http://www.w3.org/2000/svg">
<path d="M25.9192 17.333C25.6258 17.333 25.3192 17.2397 25.0258 17.173C24.4318 17.0421 23.848 16.8683 23.2792 16.653C22.6606 16.428 21.9807 16.4397 21.3702 16.6858C20.7598 16.932 20.2619 17.3952 19.9725 17.9863L19.6792 18.5863C18.3805 17.8639 17.1871 16.9666 16.1325 15.9197C15.0855 14.865 14.1883 13.6717 13.4658 12.373L14.0258 11.9997C14.617 11.7102 15.0802 11.2124 15.3264 10.6019C15.5725 9.99147 15.5842 9.31154 15.3592 8.693C15.1475 8.12289 14.9737 7.53939 14.8392 6.94633C14.7725 6.653 14.7192 6.34633 14.6792 6.03966C14.5172 5.10049 14.0253 4.24998 13.292 3.64131C12.5586 3.03264 11.6321 2.70581 10.6792 2.71966H6.67916C6.10453 2.71427 5.53549 2.83275 5.01077 3.06704C4.48605 3.30132 4.01797 3.64592 3.6384 4.07737C3.25883 4.50882 2.97667 5.01699 2.81114 5.56728C2.64561 6.11757 2.6006 6.69707 2.67916 7.26633C3.38948 12.8522 5.94053 18.0422 9.92936 22.0165C13.9182 25.9909 19.1174 28.523 24.7058 29.213H25.2125C26.1957 29.2144 27.145 28.8537 27.8792 28.1997C28.301 27.8224 28.6379 27.3599 28.8678 26.8428C29.0976 26.3256 29.2151 25.7656 29.2125 25.1997V21.1997C29.1962 20.2735 28.8589 19.3817 28.2583 18.6766C27.6577 17.9714 26.8309 17.4965 25.9192 17.333ZM26.5858 25.333C26.5856 25.5223 26.545 25.7094 26.4669 25.8818C26.3887 26.0542 26.2747 26.2081 26.1325 26.333C25.9835 26.4616 25.8093 26.5577 25.621 26.6151C25.4328 26.6725 25.2346 26.69 25.0392 26.6663C20.0457 26.0261 15.4075 23.7416 11.8561 20.1734C8.30475 16.6051 6.04237 11.9561 5.42582 6.95966C5.4046 6.76435 5.4232 6.56677 5.48049 6.37885C5.53779 6.19093 5.63258 6.01658 5.75916 5.86633C5.8841 5.7241 6.03791 5.61012 6.21033 5.53195C6.38275 5.45379 6.56984 5.41323 6.75916 5.413H10.7592C11.0692 5.4061 11.372 5.5075 11.6153 5.69976C11.8587 5.89201 12.0274 6.16309 12.0925 6.46633C12.1458 6.83077 12.2125 7.19077 12.2925 7.54633C12.4465 8.24919 12.6515 8.9399 12.9058 9.613L11.0392 10.4797C10.8796 10.5529 10.736 10.6569 10.6167 10.7858C10.4974 10.9147 10.4048 11.0658 10.3441 11.2306C10.2833 11.3954 10.2558 11.5705 10.263 11.746C10.2701 11.9214 10.3119 12.0937 10.3858 12.253C12.3048 16.3633 15.6088 19.6674 19.7192 21.5863C20.0438 21.7197 20.4079 21.7197 20.7325 21.5863C20.8988 21.5269 21.0516 21.4349 21.1821 21.3159C21.3125 21.1969 21.418 21.0531 21.4925 20.893L22.3192 19.0263C23.0084 19.2728 23.7119 19.4776 24.4258 19.6397C24.7814 19.7197 25.1414 19.7863 25.5058 19.8397C25.8091 19.9047 26.0801 20.0734 26.2724 20.3168C26.4647 20.5602 26.5661 20.8629 26.5592 21.173L26.5858 25.333Z" fill="white"/>
</svg>
