<svg width="130" height="139" viewBox="0 0 130 139" fill="none" xmlns="http://www.w3.org/2000/svg">
<path d="M3 108.46L4.87879 109.626C6.75758 110.792 10.5152 113.124 14.2727 91.9922C18.0303 70.86 21.7879 26.2635 25.5455 24.5954C29.303 22.9274 33.0606 64.1878 36.8182 80.5282C40.5758 96.8686 44.3333 88.2889 48.0909 81.9116C51.8485 75.5343 55.6061 71.3592 59.3636 79.0824C63.1212 86.8056 66.8788 106.427 70.6364 119.47C74.3939 132.513 78.1515 138.978 81.9091 120.68C85.6667 102.383 89.4242 59.3236 93.1818 35.5174C96.9394 11.7112 100.697 7.15802 104.455 4.44738C108.212 1.73675 111.97 0.86867 115.727 20.1728C119.485 39.477 123.242 78.9534 125.121 98.6916L127 118.43" stroke="#4CBC9A" stroke-width="5" stroke-linecap="round"/>
<path d="M4.87879 109.439L3 108.275V139H127V118.227L125.121 98.5232L125.121 98.5229C123.242 78.8194 119.485 39.4127 115.727 20.1426C111.97 0.872421 108.212 1.73897 104.455 4.44484C100.697 7.1507 96.9394 11.6959 93.1818 35.4602C89.4242 59.2245 85.6667 102.208 81.9091 120.473C78.1515 138.738 74.3939 132.285 70.6364 119.265C66.8788 106.245 63.1212 86.6581 59.3636 78.9485C55.6061 71.2389 51.8485 75.4066 48.0909 81.7727C44.3333 88.1388 40.5758 96.7033 36.8182 80.3917C33.0606 64.0801 29.303 22.8923 25.5455 24.5574C21.7879 26.2225 18.0303 70.7405 14.2727 91.8356C10.5152 112.931 6.75758 110.603 4.87879 109.439Z" fill="url(#paint0_linear_1138_32)"/>
<defs>
<linearGradient id="paint0_linear_1138_32" x1="65" y1="-217.097" x2="65" y2="139" gradientUnits="userSpaceOnUse">
<stop stop-color="#4CBC9A"/>
<stop offset="1" stop-color="#4CBC9A" stop-opacity="0"/>
</linearGradient>
</defs>
</svg>
