<svg width="224" height="95" viewBox="0 0 224 95" fill="none" xmlns="http://www.w3.org/2000/svg">
<path d="M24 18C24 14.6863 21.3137 12 18 12H6C2.68629 12 0 14.6863 0 18V95H24V18Z" fill="#4CBC9A"/>
<path d="M64 43C64 39.6863 61.3137 37 58 37H46C42.6863 37 40 39.6863 40 43V95H64V43Z" fill="#FEC64F"/>
<path d="M104 57C104 53.6863 101.314 51 98 51H86C82.6863 51 80 53.6863 80 57V95H104V57Z" fill="#4CBC9A"/>
<path d="M144 6C144 2.68629 141.314 0 138 0H126C122.686 0 120 2.68629 120 6V95H144V6Z" fill="#FEC64F"/>
<path d="M184 62C184 58.6863 181.314 56 178 56H166C162.686 56 160 58.6863 160 62V95H184V62Z" fill="#4CBC9A"/>
<path d="M224 18C224 14.6863 221.314 12 218 12H206C202.686 12 200 14.6863 200 18V95H224V18Z" fill="#FEC64F"/>
</svg>
