<svg width="262" height="262" viewBox="0 0 262 262" fill="none" xmlns="http://www.w3.org/2000/svg">
<path opacity="0.5" d="M262 131C262 203.349 203.349 262 131 262C58.6507 262 0 203.349 0 131C0 58.6507 58.6507 0 131 0C203.349 0 262 58.6507 262 131ZM65.5 131C65.5 167.175 94.8253 196.5 131 196.5C167.175 196.5 196.5 167.175 196.5 131C196.5 94.8253 167.175 65.5 131 65.5C94.8253 65.5 65.5 94.8253 65.5 131Z" fill="#DBDBDB"/>
<circle opacity="0.5" cx="32.75" cy="32.75" r="32.75" transform="matrix(-1 0 0 1 163.75 98.25)" fill="#DBDBDB"/>
<path d="M17.5507 196.5C31.9316 221.409 54.1104 240.892 80.6643 251.943C107.218 262.995 136.671 265 164.478 257.65L147.739 194.325C133.836 198 119.109 196.997 105.832 191.472C92.5552 185.946 81.4658 176.204 74.2753 163.75L17.5507 196.5Z" fill="#FC6B57"/>
<path d="M17.5507 196.5C0.178995 166.411 -4.52853 130.654 4.46371 97.0947C13.456 63.5352 35.4114 34.9224 65.5 17.5507C95.5886 0.178997 131.346 -4.52853 164.905 4.46371C198.465 13.4559 227.078 35.4114 244.449 65.5L187.725 98.25C179.039 83.2057 164.732 72.228 147.953 67.7319C131.173 63.2357 113.294 65.5895 98.25 74.2753C83.2057 82.9612 72.228 97.2676 67.7319 114.047C63.2357 130.827 65.5895 148.706 74.2753 163.75L17.5507 196.5Z" fill="#FEC64F"/>
<path d="M223.631 223.631C235.795 211.467 245.445 197.025 252.028 181.132C258.612 165.238 262 148.203 262 131C262 113.797 258.612 96.7621 252.028 80.8685C245.445 64.9748 235.795 50.5335 223.631 38.369L177.315 84.6845C183.398 90.7667 188.222 97.9874 191.514 105.934C194.806 113.881 196.5 122.398 196.5 131C196.5 139.602 194.806 148.119 191.514 156.066C188.222 164.013 183.398 171.233 177.315 177.315L223.631 223.631Z" fill="#4CBC9A"/>
<path d="M54.746 60.156C55.898 59.196 56.816 58.398 57.5 57.762C58.184 57.114 58.754 56.442 59.21 55.746C59.666 55.05 59.894 54.366 59.894 53.694C59.894 53.082 59.75 52.602 59.462 52.254C59.174 51.906 58.73 51.732 58.13 51.732C57.53 51.732 57.068 51.936 56.744 52.344C56.42 52.74 56.252 53.286 56.24 53.982H53.792C53.84 52.542 54.266 51.45 55.07 50.706C55.886 49.962 56.918 49.59 58.166 49.59C59.534 49.59 60.584 49.956 61.316 50.688C62.048 51.408 62.414 52.362 62.414 53.55C62.414 54.486 62.162 55.38 61.658 56.232C61.154 57.084 60.578 57.828 59.93 58.464C59.282 59.088 58.436 59.844 57.392 60.732H62.702V62.82H53.81V60.948L54.746 60.156ZM72.6419 51.786L67.8539 63H65.2979L70.1219 52.074H63.9659V49.914H72.6419V51.786ZM73.8633 53.1C73.8633 52.188 74.1273 51.474 74.6553 50.958C75.1953 50.442 75.8853 50.184 76.7253 50.184C77.5653 50.184 78.2493 50.442 78.7773 50.958C79.3173 51.474 79.5873 52.188 79.5873 53.1C79.5873 54.024 79.3173 54.744 78.7773 55.26C78.2493 55.776 77.5653 56.034 76.7253 56.034C75.8853 56.034 75.1953 55.776 74.6553 55.26C74.1273 54.744 73.8633 54.024 73.8633 53.1ZM85.4193 50.4L78.3453 63H75.8973L82.9533 50.4H85.4193ZM76.7073 51.696C76.0473 51.696 75.7173 52.164 75.7173 53.1C75.7173 54.048 76.0473 54.522 76.7073 54.522C77.0313 54.522 77.2833 54.408 77.4633 54.18C77.6433 53.94 77.7333 53.58 77.7333 53.1C77.7333 52.164 77.3913 51.696 76.7073 51.696ZM81.7653 60.282C81.7653 59.358 82.0293 58.644 82.5573 58.14C83.0973 57.624 83.7873 57.366 84.6273 57.366C85.4673 57.366 86.1453 57.624 86.6613 58.14C87.1893 58.644 87.4533 59.358 87.4533 60.282C87.4533 61.206 87.1893 61.926 86.6613 62.442C86.1453 62.958 85.4673 63.216 84.6273 63.216C83.7753 63.216 83.0853 62.958 82.5573 62.442C82.0293 61.926 81.7653 61.206 81.7653 60.282ZM84.6093 58.878C83.9253 58.878 83.5833 59.346 83.5833 60.282C83.5833 61.23 83.9253 61.704 84.6093 61.704C85.2813 61.704 85.6173 61.23 85.6173 60.282C85.6173 59.346 85.2813 58.878 84.6093 58.878Z" fill="white"/>
<path d="M81.774 209.056H75.942V212.134C76.194 211.822 76.554 211.57 77.022 211.378C77.49 211.174 77.988 211.072 78.516 211.072C79.476 211.072 80.262 211.282 80.874 211.702C81.486 212.122 81.93 212.662 82.206 213.322C82.482 213.97 82.62 214.666 82.62 215.41C82.62 216.79 82.224 217.9 81.432 218.74C80.652 219.58 79.536 220 78.084 220C76.716 220 75.624 219.658 74.808 218.974C73.992 218.29 73.53 217.396 73.422 216.292H75.87C75.978 216.772 76.218 217.156 76.59 217.444C76.974 217.732 77.46 217.876 78.048 217.876C78.756 217.876 79.29 217.654 79.65 217.21C80.01 216.766 80.19 216.178 80.19 215.446C80.19 214.702 80.004 214.138 79.632 213.754C79.272 213.358 78.738 213.16 78.03 213.16C77.526 213.16 77.106 213.286 76.77 213.538C76.434 213.79 76.194 214.126 76.05 214.546H73.638V206.842H81.774V209.056ZM84.538 213.268C84.538 211.192 84.91 209.566 85.654 208.39C86.41 207.214 87.658 206.626 89.398 206.626C91.138 206.626 92.38 207.214 93.124 208.39C93.88 209.566 94.258 211.192 94.258 213.268C94.258 215.356 93.88 216.994 93.124 218.182C92.38 219.37 91.138 219.964 89.398 219.964C87.658 219.964 86.41 219.37 85.654 218.182C84.91 216.994 84.538 215.356 84.538 213.268ZM91.774 213.268C91.774 212.38 91.714 211.636 91.594 211.036C91.486 210.424 91.258 209.926 90.91 209.542C90.574 209.158 90.07 208.966 89.398 208.966C88.726 208.966 88.216 209.158 87.868 209.542C87.532 209.926 87.304 210.424 87.184 211.036C87.076 211.636 87.022 212.38 87.022 213.268C87.022 214.18 87.076 214.948 87.184 215.572C87.292 216.184 87.52 216.682 87.868 217.066C88.216 217.438 88.726 217.624 89.398 217.624C90.07 217.624 90.58 217.438 90.928 217.066C91.276 216.682 91.504 216.184 91.612 215.572C91.72 214.948 91.774 214.18 91.774 213.268ZM95.8867 210.1C95.8867 209.188 96.1507 208.474 96.6787 207.958C97.2187 207.442 97.9087 207.184 98.7487 207.184C99.5887 207.184 100.273 207.442 100.801 207.958C101.341 208.474 101.611 209.188 101.611 210.1C101.611 211.024 101.341 211.744 100.801 212.26C100.273 212.776 99.5887 213.034 98.7487 213.034C97.9087 213.034 97.2187 212.776 96.6787 212.26C96.1507 211.744 95.8867 211.024 95.8867 210.1ZM107.443 207.4L100.369 220H97.9207L104.977 207.4H107.443ZM98.7307 208.696C98.0707 208.696 97.7407 209.164 97.7407 210.1C97.7407 211.048 98.0707 211.522 98.7307 211.522C99.0547 211.522 99.3067 211.408 99.4867 211.18C99.6667 210.94 99.7567 210.58 99.7567 210.1C99.7567 209.164 99.4147 208.696 98.7307 208.696ZM103.789 217.282C103.789 216.358 104.053 215.644 104.581 215.14C105.121 214.624 105.811 214.366 106.651 214.366C107.491 214.366 108.169 214.624 108.685 215.14C109.213 215.644 109.477 216.358 109.477 217.282C109.477 218.206 109.213 218.926 108.685 219.442C108.169 219.958 107.491 220.216 106.651 220.216C105.799 220.216 105.109 219.958 104.581 219.442C104.053 218.926 103.789 218.206 103.789 217.282ZM106.633 215.878C105.949 215.878 105.607 216.346 105.607 217.282C105.607 218.23 105.949 218.704 106.633 218.704C107.305 218.704 107.641 218.23 107.641 217.282C107.641 216.346 107.305 215.878 106.633 215.878Z" fill="white"/>
<path d="M211.746 128.156C212.898 127.196 213.816 126.398 214.5 125.762C215.184 125.114 215.754 124.442 216.21 123.746C216.666 123.05 216.894 122.366 216.894 121.694C216.894 121.082 216.75 120.602 216.462 120.254C216.174 119.906 215.73 119.732 215.13 119.732C214.53 119.732 214.068 119.936 213.744 120.344C213.42 120.74 213.252 121.286 213.24 121.982H210.792C210.84 120.542 211.266 119.45 212.07 118.706C212.886 117.962 213.918 117.59 215.166 117.59C216.534 117.59 217.584 117.956 218.316 118.688C219.048 119.408 219.414 120.362 219.414 121.55C219.414 122.486 219.162 123.38 218.658 124.232C218.154 125.084 217.578 125.828 216.93 126.464C216.282 127.088 215.436 127.844 214.392 128.732H219.702V130.82H210.81V128.948L211.746 128.156ZM221.326 121.334C221.386 120.134 221.806 119.21 222.586 118.562C223.378 117.902 224.416 117.572 225.7 117.572C226.576 117.572 227.326 117.728 227.95 118.04C228.574 118.34 229.042 118.754 229.354 119.282C229.678 119.798 229.84 120.386 229.84 121.046C229.84 121.802 229.642 122.444 229.246 122.972C228.862 123.488 228.4 123.836 227.86 124.016V124.088C228.556 124.304 229.096 124.688 229.48 125.24C229.876 125.792 230.074 126.5 230.074 127.364C230.074 128.084 229.906 128.726 229.57 129.29C229.246 129.854 228.76 130.298 228.112 130.622C227.476 130.934 226.708 131.09 225.808 131.09C224.452 131.09 223.348 130.748 222.496 130.064C221.644 129.38 221.194 128.372 221.146 127.04H223.594C223.618 127.628 223.816 128.102 224.188 128.462C224.572 128.81 225.094 128.984 225.754 128.984C226.366 128.984 226.834 128.816 227.158 128.48C227.494 128.132 227.662 127.688 227.662 127.148C227.662 126.428 227.434 125.912 226.978 125.6C226.522 125.288 225.814 125.132 224.854 125.132H224.332V123.062H224.854C226.558 123.062 227.41 122.492 227.41 121.352C227.41 120.836 227.254 120.434 226.942 120.146C226.642 119.858 226.204 119.714 225.628 119.714C225.064 119.714 224.626 119.87 224.314 120.182C224.014 120.482 223.84 120.866 223.792 121.334H221.326ZM231.777 121.1C231.777 120.188 232.041 119.474 232.569 118.958C233.109 118.442 233.799 118.184 234.639 118.184C235.479 118.184 236.163 118.442 236.691 118.958C237.231 119.474 237.501 120.188 237.501 121.1C237.501 122.024 237.231 122.744 236.691 123.26C236.163 123.776 235.479 124.034 234.639 124.034C233.799 124.034 233.109 123.776 232.569 123.26C232.041 122.744 231.777 122.024 231.777 121.1ZM243.333 118.4L236.259 131H233.811L240.867 118.4H243.333ZM234.621 119.696C233.961 119.696 233.631 120.164 233.631 121.1C233.631 122.048 233.961 122.522 234.621 122.522C234.945 122.522 235.197 122.408 235.377 122.18C235.557 121.94 235.647 121.58 235.647 121.1C235.647 120.164 235.305 119.696 234.621 119.696ZM239.679 128.282C239.679 127.358 239.943 126.644 240.471 126.14C241.011 125.624 241.701 125.366 242.541 125.366C243.381 125.366 244.059 125.624 244.575 126.14C245.103 126.644 245.367 127.358 245.367 128.282C245.367 129.206 245.103 129.926 244.575 130.442C244.059 130.958 243.381 131.216 242.541 131.216C241.689 131.216 240.999 130.958 240.471 130.442C239.943 129.926 239.679 129.206 239.679 128.282ZM242.523 126.878C241.839 126.878 241.497 127.346 241.497 128.282C241.497 129.23 241.839 129.704 242.523 129.704C243.195 129.704 243.531 129.23 243.531 128.282C243.531 127.346 243.195 126.878 242.523 126.878Z" fill="white"/>
</svg>
