<svg width="150" height="150" viewBox="0 0 150 150" fill="none" xmlns="http://www.w3.org/2000/svg">
<path d="M150 75C150 116.421 116.421 150 75 150C33.5786 150 0 116.421 0 75C0 33.5786 33.5786 0 75 0C116.421 0 150 33.5786 150 75ZM30 75C30 99.8528 50.1472 120 75 120C99.8528 120 120 99.8528 120 75C120 50.1472 99.8528 30 75 30C50.1472 30 30 50.1472 30 75Z" fill="#FAFAFA"/>
<path d="M75 150C62.6662 150 50.5227 146.958 39.6453 141.144C28.7678 135.33 19.4921 126.923 12.6398 116.668C5.78749 106.413 1.57009 94.6257 0.361165 82.3513C-0.847762 70.0769 0.989103 57.6937 5.70905 46.2987C10.429 34.9038 17.8863 24.8487 27.4205 17.0242C36.9547 9.19972 48.2714 3.84731 60.3682 1.4411C72.4651 -0.965108 84.9686 -0.350849 96.7714 3.22947C108.574 6.80979 119.312 13.2457 128.033 21.967L106.82 43.1802C101.587 37.9474 95.1445 34.0859 88.0628 31.9377C80.9812 29.7895 73.479 29.4209 66.2209 30.8647C58.9628 32.3084 52.1728 35.5198 46.4523 40.2145C40.7318 44.9092 36.2574 50.9423 33.4254 57.7792C30.5935 64.6162 29.4914 72.0461 30.2167 79.4108C30.9421 86.7754 33.4725 93.8475 37.5839 100.001C41.6953 106.154 47.2607 111.198 53.7872 114.686C60.3136 118.175 67.5997 120 75 120V150Z" fill="#FEC64F"/>
<circle cx="75.6197" cy="75.6198" r="45.8678" fill="white"/>
<path d="M58.744 70.208C58.616 69.616 58.392 69.176 58.072 68.888C57.752 68.584 57.296 68.432 56.704 68.432C55.792 68.432 55.136 68.832 54.736 69.632C54.336 70.416 54.128 71.664 54.112 73.376C54.464 72.816 54.968 72.376 55.624 72.056C56.296 71.736 57.032 71.576 57.832 71.576C59.4 71.576 60.656 72.072 61.6 73.064C62.56 74.056 63.04 75.44 63.04 77.216C63.04 78.384 62.8 79.408 62.32 80.288C61.856 81.168 61.168 81.856 60.256 82.352C59.36 82.848 58.296 83.096 57.064 83.096C54.6 83.096 52.888 82.328 51.928 80.792C50.968 79.24 50.488 77.016 50.488 74.12C50.488 71.08 50.992 68.824 52 67.352C53.024 65.864 54.656 65.12 56.896 65.12C58.096 65.12 59.104 65.36 59.92 65.84C60.752 66.304 61.376 66.92 61.792 67.688C62.224 68.456 62.48 69.296 62.56 70.208H58.744ZM56.848 74.816C56.16 74.816 55.584 75.024 55.12 75.44C54.672 75.84 54.448 76.416 54.448 77.168C54.448 77.936 54.656 78.536 55.072 78.968C55.504 79.4 56.112 79.616 56.896 79.616C57.6 79.616 58.152 79.408 58.552 78.992C58.968 78.56 59.176 77.976 59.176 77.24C59.176 76.488 58.976 75.896 58.576 75.464C58.176 75.032 57.6 74.816 56.848 74.816ZM65.2173 79.712C65.7613 79.28 66.0093 79.08 65.9613 79.112C67.5293 77.816 68.7613 76.752 69.6573 75.92C70.5693 75.088 71.3373 74.216 71.9613 73.304C72.5853 72.392 72.8973 71.504 72.8973 70.64C72.8973 69.984 72.7453 69.472 72.4413 69.104C72.1373 68.736 71.6813 68.552 71.0733 68.552C70.4653 68.552 69.9853 68.784 69.6333 69.248C69.2973 69.696 69.1293 70.336 69.1293 71.168H65.1693C65.2013 69.808 65.4893 68.672 66.0333 67.76C66.5933 66.848 67.3213 66.176 68.2173 65.744C69.1293 65.312 70.1373 65.096 71.2413 65.096C73.1453 65.096 74.5773 65.584 75.5373 66.56C76.5133 67.536 77.0013 68.808 77.0013 70.376C77.0013 72.088 76.4173 73.68 75.2493 75.152C74.0813 76.608 72.5933 78.032 70.7853 79.424H77.2653V82.76H65.2173V79.712ZM78.7362 69.896C78.7362 68.6 79.1042 67.6 79.8402 66.896C80.5922 66.192 81.5602 65.84 82.7442 65.84C83.9282 65.84 84.8882 66.192 85.6242 66.896C86.3602 67.6 86.7282 68.6 86.7282 69.896C86.7282 71.192 86.3602 72.192 85.6242 72.896C84.8882 73.6 83.9282 73.952 82.7442 73.952C81.5602 73.952 80.5922 73.6 79.8402 72.896C79.1042 72.192 78.7362 71.192 78.7362 69.896ZM95.0322 66.104L85.7922 83H81.8322L91.0722 66.104H95.0322ZM82.7202 68.24C81.9522 68.24 81.5682 68.792 81.5682 69.896C81.5682 70.984 81.9522 71.528 82.7202 71.528C83.0882 71.528 83.3762 71.392 83.5842 71.12C83.7922 70.848 83.8962 70.44 83.8962 69.896C83.8962 68.792 83.5042 68.24 82.7202 68.24ZM90.1602 79.208C90.1602 77.912 90.5282 76.912 91.2642 76.208C92.0002 75.504 92.9602 75.152 94.1442 75.152C95.3282 75.152 96.2882 75.504 97.0242 76.208C97.7602 76.912 98.1282 77.912 98.1282 79.208C98.1282 80.504 97.7602 81.504 97.0242 82.208C96.2882 82.912 95.3282 83.264 94.1442 83.264C92.9602 83.264 92.0002 82.912 91.2642 82.208C90.5282 81.504 90.1602 80.504 90.1602 79.208ZM94.1202 77.552C93.7522 77.552 93.4642 77.688 93.2562 77.96C93.0642 78.232 92.9682 78.648 92.9682 79.208C92.9682 80.296 93.3522 80.84 94.1202 80.84C94.4882 80.84 94.7762 80.704 94.9842 80.432C95.1922 80.16 95.2962 79.752 95.2962 79.208C95.2962 78.664 95.1922 78.256 94.9842 77.984C94.7762 77.696 94.4882 77.552 94.1202 77.552Z" fill="#FEC64F"/>
</svg>
