<svg width="246" height="246" viewBox="0 0 246 246" fill="none" xmlns="http://www.w3.org/2000/svg">
<path opacity="0.5" d="M246 123C246 190.931 190.931 246 123 246C55.069 246 0 190.931 0 123C0 55.069 55.069 0 123 0C190.931 0 246 55.069 246 123ZM36.9 123C36.9 170.552 75.4483 209.1 123 209.1C170.552 209.1 209.1 170.552 209.1 123C209.1 75.4483 170.552 36.9 123 36.9C75.4483 36.9 36.9 75.4483 36.9 123Z" fill="#DBDBDB"/>
<path d="M123 227.55C123 237.74 114.694 246.142 104.618 244.619C78.7995 240.717 54.7151 228.663 36.0259 209.974C12.9589 186.907 -9.07473e-07 155.622 0 123C9.07473e-07 90.3784 12.9589 59.0928 36.0259 36.0259C54.7152 17.3366 78.7995 5.28278 104.618 1.38074C114.694 -0.141948 123 8.26034 123 18.45C123 28.6397 114.647 36.702 104.69 38.8691C88.6887 42.3519 73.8777 50.3585 62.1181 62.1181C45.9712 78.265 36.9 100.165 36.9 123C36.9 145.835 45.9712 167.735 62.1181 183.882C73.8777 195.641 88.6887 203.648 104.69 207.131C114.647 209.298 123 217.36 123 227.55Z" fill="#FEC64F"/>
<path d="M22.0125 150.06C12.17 152.697 6.20405 162.895 10.2826 172.232C18.5383 191.134 31.4594 207.752 47.9578 220.456C64.4561 233.16 83.8247 241.405 104.208 244.556C114.278 246.113 122.613 237.739 122.647 227.549C122.682 217.36 114.356 209.269 104.407 207.068C92.1408 204.355 80.5417 198.974 70.4704 191.219C60.3992 183.464 52.2323 173.625 46.4748 162.46C41.8047 153.404 31.8549 147.422 22.0125 150.06Z" fill="#4CBC9A"/>
<path d="M105.136 19.9875C103.395 9.94765 110.143 0.250052 120.33 0.0289341C135.635 -0.30326 150.923 2.22357 165.395 7.53715C185.663 14.979 203.615 27.6249 217.447 44.2037C231.278 60.7825 240.502 80.7102 244.191 101.984C246.825 117.173 246.571 132.667 243.502 147.664C241.459 157.647 230.709 162.548 221.143 159.036C211.578 155.524 206.888 144.904 208.286 134.81C209.501 126.036 209.36 117.089 207.834 108.289C205.251 93.3971 198.795 79.4478 189.113 67.8426C179.43 56.2374 166.864 47.3853 152.676 42.176C144.292 39.0974 135.515 37.3552 126.665 36.978C116.485 36.5443 106.877 30.0273 105.136 19.9875Z" fill="#FC6B57"/>
</svg>
