<svg width="150" height="150" viewBox="0 0 150 150" fill="none" xmlns="http://www.w3.org/2000/svg">
<path d="M150 75C150 116.421 116.421 150 75 150C33.5786 150 0 116.421 0 75C0 33.5786 33.5786 0 75 0C116.421 0 150 33.5786 150 75ZM30 75C30 99.8528 50.1472 120 75 120C99.8528 120 120 99.8528 120 75C120 50.1472 99.8528 30 75 30C50.1472 30 30 50.1472 30 75Z" fill="#FAFAFA"/>
<path d="M75 150C59.1616 150 43.7297 144.986 30.9161 135.676C18.1025 126.367 8.56511 113.24 3.67076 98.1763C-1.22359 83.113 -1.22359 66.887 3.67076 51.8237C8.56511 36.7605 18.1025 23.6333 30.9161 14.3237C43.7297 5.01412 59.1616 -3.25702e-06 75 0C90.8385 3.25702e-06 106.27 5.01413 119.084 14.3237C131.897 23.6333 141.435 36.7605 146.329 51.8237C151.224 66.887 151.224 83.113 146.329 98.1763L117.798 88.9058C120.734 79.8678 120.734 70.1322 117.798 61.0942C114.861 52.0563 109.138 44.18 101.45 38.5942C93.7622 33.0085 84.5031 30 75 30C65.4969 30 56.2378 33.0085 48.5497 38.5942C40.8615 44.18 35.1391 52.0563 32.2025 61.0942C29.2658 70.1322 29.2658 79.8678 32.2025 88.9058C35.1391 97.9437 40.8615 105.82 48.5497 111.406C56.2378 116.992 65.4969 120 75 120V150Z" fill="#4CBC9A"/>
<circle cx="75.6197" cy="75.6198" r="45.8678" fill="white"/>
<path d="M53.96 75.592C52.456 74.792 51.704 73.536 51.704 71.824C51.704 70.96 51.928 70.176 52.376 69.472C52.824 68.752 53.504 68.184 54.416 67.768C55.328 67.336 56.448 67.12 57.776 67.12C59.104 67.12 60.216 67.336 61.112 67.768C62.024 68.184 62.704 68.752 63.152 69.472C63.6 70.176 63.824 70.96 63.824 71.824C63.824 72.688 63.616 73.44 63.2 74.08C62.8 74.72 62.256 75.224 61.568 75.592C62.432 76.008 63.096 76.584 63.56 77.32C64.024 78.04 64.256 78.888 64.256 79.864C64.256 81 63.968 81.984 63.392 82.816C62.816 83.632 62.032 84.256 61.04 84.688C60.064 85.12 58.976 85.336 57.776 85.336C56.576 85.336 55.48 85.12 54.488 84.688C53.512 84.256 52.736 83.632 52.16 82.816C51.584 81.984 51.296 81 51.296 79.864C51.296 78.872 51.528 78.016 51.992 77.296C52.456 76.56 53.112 75.992 53.96 75.592ZM59.84 72.448C59.84 71.792 59.648 71.288 59.264 70.936C58.896 70.568 58.4 70.384 57.776 70.384C57.152 70.384 56.648 70.568 56.264 70.936C55.896 71.304 55.712 71.816 55.712 72.472C55.712 73.096 55.904 73.592 56.288 73.96C56.672 74.312 57.168 74.488 57.776 74.488C58.384 74.488 58.88 74.304 59.264 73.936C59.648 73.568 59.84 73.072 59.84 72.448ZM57.776 77.368C57.024 77.368 56.416 77.576 55.952 77.992C55.488 78.392 55.256 78.952 55.256 79.672C55.256 80.344 55.48 80.896 55.928 81.328C56.392 81.76 57.008 81.976 57.776 81.976C58.544 81.976 59.144 81.76 59.576 81.328C60.024 80.896 60.248 80.344 60.248 79.672C60.248 78.968 60.016 78.408 59.552 77.992C59.104 77.576 58.512 77.368 57.776 77.368ZM66.6425 76C66.6425 73.248 67.1705 71.08 68.2265 69.496C69.2985 67.912 71.0185 67.12 73.3865 67.12C75.7545 67.12 77.4665 67.912 78.5225 69.496C79.5945 71.08 80.1305 73.248 80.1305 76C80.1305 78.784 79.5945 80.968 78.5225 82.552C77.4665 84.136 75.7545 84.928 73.3865 84.928C71.0185 84.928 69.2985 84.136 68.2265 82.552C67.1705 80.968 66.6425 78.784 66.6425 76ZM76.0985 76C76.0985 74.384 75.9225 73.144 75.5705 72.28C75.2185 71.4 74.4905 70.96 73.3865 70.96C72.2825 70.96 71.5545 71.4 71.2025 72.28C70.8505 73.144 70.6745 74.384 70.6745 76C70.6745 77.088 70.7385 77.992 70.8665 78.712C70.9945 79.416 71.2505 79.992 71.6345 80.44C72.0345 80.872 72.6185 81.088 73.3865 81.088C74.1545 81.088 74.7305 80.872 75.1145 80.44C75.5145 79.992 75.7785 79.416 75.9065 78.712C76.0345 77.992 76.0985 77.088 76.0985 76ZM81.9628 71.896C81.9628 70.6 82.3308 69.6 83.0668 68.896C83.8188 68.192 84.7868 67.84 85.9708 67.84C87.1548 67.84 88.1148 68.192 88.8508 68.896C89.5868 69.6 89.9548 70.6 89.9548 71.896C89.9548 73.192 89.5868 74.192 88.8508 74.896C88.1148 75.6 87.1548 75.952 85.9708 75.952C84.7868 75.952 83.8188 75.6 83.0668 74.896C82.3308 74.192 81.9628 73.192 81.9628 71.896ZM98.2588 68.104L89.0188 85H85.0588L94.2988 68.104H98.2588ZM85.9468 70.24C85.1788 70.24 84.7948 70.792 84.7948 71.896C84.7948 72.984 85.1788 73.528 85.9468 73.528C86.3148 73.528 86.6028 73.392 86.8108 73.12C87.0188 72.848 87.1228 72.44 87.1228 71.896C87.1228 70.792 86.7308 70.24 85.9468 70.24ZM93.3868 81.208C93.3868 79.912 93.7548 78.912 94.4908 78.208C95.2268 77.504 96.1868 77.152 97.3708 77.152C98.5548 77.152 99.5148 77.504 100.251 78.208C100.987 78.912 101.355 79.912 101.355 81.208C101.355 82.504 100.987 83.504 100.251 84.208C99.5148 84.912 98.5548 85.264 97.3708 85.264C96.1868 85.264 95.2268 84.912 94.4908 84.208C93.7548 83.504 93.3868 82.504 93.3868 81.208ZM97.3468 79.552C96.9788 79.552 96.6908 79.688 96.4828 79.96C96.2908 80.232 96.1948 80.648 96.1948 81.208C96.1948 82.296 96.5788 82.84 97.3468 82.84C97.7148 82.84 98.0028 82.704 98.2108 82.432C98.4188 82.16 98.5228 81.752 98.5228 81.208C98.5228 80.664 98.4188 80.256 98.2108 79.984C98.0028 79.696 97.7148 79.552 97.3468 79.552Z" fill="#4CBC9A"/>
</svg>
