<svg width="48" height="48" viewBox="0 0 48 48" fill="none" xmlns="http://www.w3.org/2000/svg">
<path d="M35.7151 4.76999H33.9901C33.3601 2.46002 31.2601 0.75 28.7551 0.75H19.2451C16.7401 0.75 14.6401 2.46002 14.0251 4.76999H12.2851C9.30012 4.76999 6.87012 7.19999 6.87012 10.185V41.835C6.87013 44.82 9.30012 47.25 12.2851 47.25H35.7151C38.7001 47.25 41.1301 44.82 41.1301 41.835V10.185C41.1301 7.19999 38.7001 4.76999 35.7151 4.76999ZM16.0951 32.67H31.9201C33.1501 32.67 34.1701 33.69 34.1701 34.92C34.1701 36.165 33.1501 37.17 31.9201 37.17H16.0951C14.8501 37.17 13.8451 36.165 13.8451 34.92C13.8451 33.69 14.8501 32.67 16.0951 32.67ZM13.8451 26.97C13.8451 25.725 14.8501 24.72 16.0951 24.72H31.9201C33.1501 24.72 34.1701 25.725 34.1701 26.97C34.1701 28.2 33.1501 29.22 31.9201 29.22H16.0951C14.8501 29.22 13.8451 28.2 13.8451 26.97ZM31.9201 21.255H16.0951C14.8501 21.255 13.8451 20.25 13.8451 19.005C13.8451 17.76 14.8501 16.755 16.0951 16.755H31.9201C33.1501 16.755 34.1701 17.76 34.1701 19.005C34.1701 20.25 33.1501 21.255 31.9201 21.255ZM18.3451 6.16499C18.3451 5.65503 18.7501 5.25 19.2451 5.25H28.7551C29.2501 5.25 29.6702 5.65503 29.6702 6.16499V7.875C29.6702 8.38505 29.2501 8.78999 28.7551 8.78999H19.2451C18.7501 8.78999 18.3451 8.38505 18.3451 7.875V6.16499Z" fill="white"/>
</svg>
