<svg width="21" height="21" viewBox="0 0 21 21" fill="none" xmlns="http://www.w3.org/2000/svg">
<path d="M10.5 10.5C12.95 10.5 14.875 8.575 14.875 6.125C14.875 3.675 12.95 1.75 10.5 1.75C8.05003 1.75 6.12503 3.675 6.12503 6.125C6.12503 8.575 8.05003 10.5 10.5 10.5ZM18.6375 18.2C17.5 13.7375 12.95 10.9375 8.48753 12.075C5.51253 12.8625 3.15003 15.1375 2.36253 18.2C2.27503 18.6375 2.53753 19.1625 3.06253 19.25C3.15003 19.25 3.23753 19.25 3.23753 19.25H17.7625C18.2875 19.25 18.6375 18.9 18.6375 18.375C18.6375 18.2875 18.6375 18.2 18.6375 18.2Z" fill="#A098AE"/>
</svg>
