<svg width="21" height="21" viewBox="0 0 21 21" fill="none" xmlns="http://www.w3.org/2000/svg">
<path d="M17.0625 2.93342H16.0847V2.29688C16.0847 1.75874 15.645 1.3125 15.1003 1.3125C14.5556 1.3125 14.1159 1.75874 14.1159 2.29688V2.93342H11.4844V2.29688C11.4844 1.75874 11.0447 1.3125 10.5 1.3125C9.9553 1.3125 9.51562 1.75874 9.51562 2.29688V2.93342H6.88406V2.29688C6.88406 1.75874 6.44438 1.3125 5.89968 1.3125C5.35498 1.3125 4.91531 1.75874 4.91531 2.29688V2.93342H3.9375C1.94904 2.93342 0.328125 4.54781 0.328125 6.54279V16.0781C0.328125 18.0665 1.94904 19.6875 3.9375 19.6875H17.0625C19.051 19.6875 20.6719 18.0665 20.6719 16.0781V6.54279C20.6719 4.54781 19.051 2.93342 17.0625 2.93342ZM18.7031 7.62563H2.29688V6.54279C2.29688 5.63717 3.03187 4.90217 3.9375 4.90217H4.91531V5.49937C4.91531 6.04404 5.35498 6.48375 5.89968 6.48375C6.44438 6.48375 6.88406 6.04404 6.88406 5.49937V4.90217H9.51562V5.49937C9.51562 6.04404 9.9553 6.48375 10.5 6.48375C11.0447 6.48375 11.4844 6.04404 11.4844 5.49937V4.90217H14.1159V5.49937C14.1159 6.04404 14.5556 6.48375 15.1003 6.48375C15.645 6.48375 16.0847 6.04404 16.0847 5.49937V4.90217H17.0625C17.9681 4.90217 18.7031 5.63717 18.7031 6.54279V7.62563Z" fill="#A098AE"/>
</svg>
