<svg width="21" height="21" viewBox="0 0 21 21" fill="none" xmlns="http://www.w3.org/2000/svg">
<path d="M18.5501 15.8375C17.9376 15.75 17.3251 15.6625 16.6251 15.6625C14.4376 15.6625 12.3376 16.275 10.5001 17.5C8.66257 16.3625 6.56257 15.6625 4.37507 15.6625C3.76257 15.6625 3.06257 15.75 2.45007 15.8375C2.01257 15.925 1.66257 16.3625 1.75007 16.8875C1.83757 17.4125 2.27507 17.675 2.80007 17.5875C3.32507 17.5 3.85007 17.4125 4.37507 17.4125C6.38757 17.4125 8.31257 18.025 9.97507 19.25C10.2376 19.5125 10.6751 19.5125 11.0251 19.25C13.1251 17.7625 15.7501 17.15 18.2001 17.5875C18.6376 17.675 19.1626 17.325 19.2501 16.8875C19.3376 16.3625 18.9876 15.925 18.5501 15.8375ZM18.5501 1.83751C17.9376 1.75001 17.3251 1.66251 16.6251 1.66251C14.4376 1.66251 12.3376 2.27501 10.5001 3.50001C8.66257 2.27501 6.56257 1.66251 4.37507 1.66251C3.76257 1.66251 3.06257 1.75001 2.45007 1.83751C2.10007 1.83751 1.75007 2.27501 1.75007 2.62501V13.125C1.75007 13.65 2.10007 14 2.62507 14C2.71257 14 2.71257 14 2.80007 14C3.32507 13.9125 3.85007 13.825 4.37507 13.825C6.38757 13.825 8.31257 14.4375 9.97507 15.6625C10.2376 15.925 10.6751 15.925 11.0251 15.6625C13.1251 14.175 15.7501 13.5625 18.2001 14C18.6376 14.0875 19.1626 13.7375 19.2501 13.3C19.2501 13.2125 19.2501 13.2125 19.2501 13.125V2.62501C19.2501 2.27501 18.9001 1.83751 18.5501 1.83751Z" fill="#A098AE"/>
</svg>
