<svg width="24" height="24" viewBox="0 0 24 24" fill="none" xmlns="http://www.w3.org/2000/svg">
<path d="M11.9981 14.5L11.9973 14.5C11.9315 14.5004 11.8663 14.4878 11.8053 14.4629C11.7447 14.4381 11.6895 14.4017 11.6429 14.3556C11.6427 14.3554 11.6425 14.3552 11.6423 14.355L7.64374 10.3565C7.5492 10.2619 7.49609 10.1337 7.49609 10C7.49609 9.86634 7.5492 9.73812 7.64374 9.64359C7.73827 9.54905 7.86649 9.49594 8.00019 9.49594C8.13378 9.49594 8.2619 9.54897 8.35641 9.64337C8.35649 9.64344 8.35656 9.64351 8.35663 9.64359L11.6461 12.943L11.9996 13.2977L12.3537 12.9436L15.6277 9.66959C15.7215 9.59434 15.8394 9.55529 15.9599 9.55995C16.0858 9.56481 16.2051 9.61698 16.2942 9.70602C16.3832 9.79507 16.4354 9.91444 16.4403 10.0403C16.4449 10.1608 16.4059 10.2787 16.3306 10.3725L12.3481 14.355C12.3479 14.3552 12.3477 14.3554 12.3475 14.3556C12.2544 14.4476 12.129 14.4995 11.9981 14.5Z" fill="#A098AE" stroke="#A098AE"/>
</svg>
