<svg width="24" height="24" viewBox="0 0 24 24" fill="none" xmlns="http://www.w3.org/2000/svg">
<path d="M19.4928 23.625C20.1153 23.625 20.6178 23.1225 20.6178 22.5V6.95248C20.6178 6.80252 20.5353 6.53248 20.5353 6.52501C20.4753 6.38251 20.3928 6.26249 20.2878 6.15748L14.8353 0.705007C14.7303 0.6 14.6103 0.517508 14.4678 0.457493C14.4603 0.457493 14.1828 0.375 14.0403 0.375H4.50781C3.8853 0.375 3.38281 0.877485 3.38281 1.5V22.5C3.38281 23.1225 3.8853 23.625 4.50781 23.625H19.4928V23.625ZM5.63281 2.62501H12.9153V6.95248C12.9153 7.57499 13.4178 8.07748 14.0403 8.07748H18.3678V21.375H5.63281V2.62501Z" fill="#374557"/>
</svg>
