<svg width="40" height="40" viewBox="0 0 40 40" fill="none" xmlns="http://www.w3.org/2000/svg">
<rect opacity="0.5" width="40" height="40" rx="8" fill="#DBDBDB"/>
<path d="M27.4928 31.625C28.1153 31.625 28.6178 31.1225 28.6178 30.5V14.9525C28.6178 14.8025 28.5353 14.5325 28.5353 14.525C28.4753 14.3825 28.3928 14.2625 28.2878 14.1575L22.8353 8.705C22.7303 8.59999 22.6103 8.5175 22.4678 8.45748C22.4603 8.45748 22.1828 8.37499 22.0403 8.37499H12.5078C11.8853 8.37499 11.3828 8.87748 11.3828 9.49999V30.5C11.3828 31.1225 11.8853 31.625 12.5078 31.625H27.4928V31.625ZM13.6328 10.625H20.9153V14.9525C20.9153 15.575 21.4178 16.0775 22.0403 16.0775H26.3678V29.375H13.6328V10.625Z" fill="#374557"/>
</svg>
