<svg width="240" height="120" viewBox="0 0 240 120" fill="none" xmlns="http://www.w3.org/2000/svg">
<g clip-path="url(#clip0_1050_747)">
<path d="M82.25 87C82.25 80.775 77.225 75.75 71 75.75C64.775 75.75 59.75 80.775 59.75 87C59.75 93.225 64.775 98.25 71 98.25C77.225 98.25 82.25 93.225 82.25 87ZM70.25 91.575L70.25 84.675L68.3 86.4C67.85 86.775 67.25 86.7 66.875 86.325C66.725 86.1 66.65 85.875 66.65 85.65C66.65 85.35 66.8 85.05 67.025 84.9L70.625 81.75C70.7 81.675 70.775 81.675 70.85 81.6C70.925 81.6 70.925 81.6 71 81.525C71.075 81.525 71.075 81.525 71.15 81.525L71.225 81.525C71.3 81.525 71.3 81.525 71.375 81.525L71.45 81.525C71.525 81.525 71.525 81.525 71.6 81.6C71.6 81.6 71.675 81.6 71.675 81.675L71.75 81.75C71.75 81.75 71.75 81.75 71.825 81.825L74.975 85.05C75.35 85.425 75.35 86.1 74.975 86.475C74.6 86.85 73.925 86.85 73.55 86.475L72.125 84.975L72.125 91.65C72.125 92.175 71.675 92.7 71.075 92.7C70.7 92.55 70.25 92.1 70.25 91.575Z" fill="#FEC64F"/>
</g>
<path d="M112.312 89.38H105.508V96.364H100.756V89.38H93.952V84.988H100.756V78.004H105.508V84.988H112.312V89.38ZM116.554 78.4V73.756H125.23V100H120.046V78.4H116.554ZM147.849 78.112H136.185V84.268C136.689 83.644 137.409 83.14 138.345 82.756C139.281 82.348 140.277 82.144 141.333 82.144C143.253 82.144 144.825 82.564 146.049 83.404C147.273 84.244 148.161 85.324 148.713 86.644C149.265 87.94 149.541 89.332 149.541 90.82C149.541 93.58 148.749 95.8 147.165 97.48C145.605 99.16 143.373 100 140.469 100C137.733 100 135.549 99.316 133.917 97.948C132.285 96.58 131.361 94.792 131.145 92.584H136.041C136.257 93.544 136.737 94.312 137.481 94.888C138.249 95.464 139.221 95.752 140.397 95.752C141.813 95.752 142.881 95.308 143.601 94.42C144.321 93.532 144.681 92.356 144.681 90.892C144.681 89.404 144.309 88.276 143.565 87.508C142.845 86.716 141.777 86.32 140.361 86.32C139.353 86.32 138.513 86.572 137.841 87.076C137.169 87.58 136.689 88.252 136.401 89.092H131.577V73.684H147.849V78.112ZM152.801 80.2C152.801 78.376 153.329 76.948 154.385 75.916C155.465 74.884 156.845 74.368 158.525 74.368C160.205 74.368 161.573 74.884 162.629 75.916C163.709 76.948 164.249 78.376 164.249 80.2C164.249 82.048 163.709 83.488 162.629 84.52C161.573 85.552 160.205 86.068 158.525 86.068C156.845 86.068 155.465 85.552 154.385 84.52C153.329 83.488 152.801 82.048 152.801 80.2ZM175.913 74.8L161.765 100H156.869L170.981 74.8H175.913ZM158.489 77.392C157.169 77.392 156.509 78.328 156.509 80.2C156.509 82.096 157.169 83.044 158.489 83.044C159.137 83.044 159.641 82.816 160.001 82.36C160.361 81.88 160.541 81.16 160.541 80.2C160.541 78.328 159.857 77.392 158.489 77.392ZM168.605 94.564C168.605 92.716 169.133 91.288 170.189 90.28C171.269 89.248 172.649 88.732 174.329 88.732C176.009 88.732 177.365 89.248 178.397 90.28C179.453 91.288 179.981 92.716 179.981 94.564C179.981 96.412 179.453 97.852 178.397 98.884C177.365 99.916 176.009 100.432 174.329 100.432C172.625 100.432 171.245 99.916 170.189 98.884C169.133 97.852 168.605 96.412 168.605 94.564ZM174.293 91.756C172.925 91.756 172.241 92.692 172.241 94.564C172.241 96.46 172.925 97.408 174.293 97.408C175.637 97.408 176.309 96.46 176.309 94.564C176.309 92.692 175.637 91.756 174.293 91.756Z" fill="#374557"/>
<path opacity="0.5" d="M0 120C1.37766e-06 104.241 3.10389 88.6371 9.13446 74.078C15.165 59.5189 24.0042 46.2902 35.1472 35.1472C46.2902 24.0042 59.5189 15.165 74.078 9.13445C88.6371 3.10389 104.241 -2.06649e-06 120 0C135.759 2.0665e-06 151.363 3.1039 165.922 9.13446C180.481 15.165 193.71 24.0042 204.853 35.1472C215.996 46.2902 224.835 59.5189 230.866 74.078C236.896 88.6371 240 104.241 240 120L216 120C216 107.393 213.517 94.9097 208.692 83.2624C203.868 71.6152 196.797 61.0322 187.882 52.1178C178.968 43.2033 168.385 36.132 156.738 31.3076C145.09 26.4831 132.607 24 120 24C107.393 24 94.9097 26.4831 83.2624 31.3076C71.6151 36.132 61.0322 43.2033 52.1178 52.1177C43.2033 61.0322 36.132 71.6151 31.3076 83.2624C26.4831 94.9096 24 107.393 24 120H0Z" fill="#DBDBDB"/>
<path d="M0 120C1.60915e-06 101.593 4.23428 83.4337 12.3753 66.9254C20.5163 50.4171 32.3458 36.0028 46.9486 24.7976C61.5515 13.5924 78.5363 5.8967 96.5892 2.30577C114.642 -1.28516 133.279 -0.675054 151.058 4.0889L144.847 27.2711C130.623 23.46 115.714 22.9719 101.271 25.8446C86.8291 28.7174 73.2412 34.8739 61.5589 43.8381C49.8766 52.8022 40.413 64.3336 33.9002 77.5403C27.3874 90.7469 24 105.275 24 120H0Z" fill="#FEC64F"/>
<defs>
<clipPath id="clip0_1050_747">
<rect width="24" height="24" fill="white" transform="translate(83 75) rotate(90)"/>
</clipPath>
</defs>
</svg>
