<svg width="941" height="410" viewBox="0 0 941 410" fill="none" xmlns="http://www.w3.org/2000/svg">
<rect x="69.5" y="14.5" width="7" height="72.1885" rx="1.5" fill="#DBDBDB" stroke="#DBDBDB"/>
<rect x="69" y="104.16" width="8" height="151.681" rx="2" fill="#4CBC9A"/>
<rect x="69" y="272.812" width="8" height="73.1885" rx="2" fill="#FEC64F"/>
<rect x="146.59" y="56.9282" width="7" height="72.1885" rx="1.5" fill="#DBDBDB" stroke="#DBDBDB"/>
<rect x="146.09" y="146.588" width="8" height="73.1885" rx="2" fill="#4CBC9A"/>
<rect x="146.09" y="236.748" width="8" height="109.252" rx="2" fill="#FEC64F"/>
<rect x="223.679" y="71.7778" width="7" height="93.4026" rx="1.5" fill="#DBDBDB" stroke="#DBDBDB"/>
<rect x="223.179" y="182.652" width="8" height="73.1885" rx="2" fill="#4CBC9A"/>
<rect x="223.179" y="272.811" width="8" height="73.1885" rx="2" fill="#FEC64F"/>
<rect x="300.769" y="48.4424" width="7" height="71.1278" rx="1.5" fill="#DBDBDB" stroke="#DBDBDB"/>
<rect x="300.269" y="137.042" width="8" height="118.799" rx="2" fill="#4CBC9A"/>
<rect x="300.269" y="272.812" width="8" height="73.1885" rx="2" fill="#FEC64F"/>
<rect x="377.859" y="131.177" width="7" height="72.1885" rx="1.5" fill="#DBDBDB" stroke="#DBDBDB"/>
<rect x="377.359" y="220.837" width="8" height="73.1885" rx="2" fill="#4CBC9A"/>
<rect x="377.359" y="310.997" width="8" height="35.0032" rx="2" fill="#FEC64F"/>
<rect x="454.948" y="137.542" width="7" height="27.639" rx="1.5" fill="#DBDBDB" stroke="#DBDBDB"/>
<rect x="454.448" y="182.652" width="8" height="73.1885" rx="2" fill="#4CBC9A"/>
<rect x="454.448" y="272.812" width="8" height="73.1885" rx="2" fill="#FEC64F"/>
<rect x="532.038" y="81.3242" width="7" height="37.1853" rx="1.5" fill="#DBDBDB" stroke="#DBDBDB"/>
<rect x="531.538" y="135.981" width="8" height="119.859" rx="2" fill="#4CBC9A"/>
<rect x="531.538" y="272.812" width="8" height="73.1885" rx="2" fill="#FEC64F"/>
<rect x="609.128" y="71.7778" width="7" height="93.4026" rx="1.5" fill="#DBDBDB" stroke="#DBDBDB"/>
<rect x="608.628" y="182.652" width="8" height="73.1885" rx="2" fill="#4CBC9A"/>
<rect x="608.628" y="272.811" width="8" height="73.1885" rx="2" fill="#FEC64F"/>
<rect x="686.217" y="48.4424" width="7" height="71.1278" rx="1.5" fill="#DBDBDB" stroke="#DBDBDB"/>
<rect x="685.717" y="137.042" width="8" height="118.799" rx="2" fill="#4CBC9A"/>
<rect x="685.717" y="272.812" width="8" height="73.1885" rx="2" fill="#FEC64F"/>
<rect x="763.307" y="131.177" width="7" height="72.1885" rx="1.5" fill="#DBDBDB" stroke="#DBDBDB"/>
<rect x="762.807" y="220.837" width="8" height="73.1885" rx="2" fill="#4CBC9A"/>
<rect x="762.807" y="310.997" width="8" height="35.0032" rx="2" fill="#FEC64F"/>
<rect x="840.397" y="137.542" width="7" height="27.639" rx="1.5" fill="#DBDBDB" stroke="#DBDBDB"/>
<rect x="839.897" y="182.652" width="8" height="73.1885" rx="2" fill="#4CBC9A"/>
<rect x="839.897" y="272.812" width="8" height="73.1885" rx="2" fill="#FEC64F"/>
<rect x="917.486" y="81.3242" width="7" height="37.1853" rx="1.5" fill="#DBDBDB" stroke="#DBDBDB"/>
<rect x="916.986" y="135.981" width="8" height="119.859" rx="2" fill="#4CBC9A"/>
<rect x="916.986" y="272.812" width="8" height="73.1885" rx="2" fill="#FEC64F"/>
<rect x="64.25" y="13.25" width="866.5" height="0.5" rx="0.25" stroke="#DBDBDB" stroke-width="0.5" stroke-dasharray="10 10"/>
<rect x="64.25" y="96.25" width="866.5" height="0.5" rx="0.25" stroke="#DBDBDB" stroke-width="0.5" stroke-dasharray="10 10"/>
<rect x="64.25" y="179.25" width="866.5" height="0.5" rx="0.25" stroke="#DBDBDB" stroke-width="0.5" stroke-dasharray="10 10"/>
<rect x="64.25" y="262.25" width="866.5" height="0.5" rx="0.25" stroke="#DBDBDB" stroke-width="0.5" stroke-dasharray="10 10"/>
<rect x="64.25" y="345.25" width="866.5" height="0.5" rx="0.25" stroke="#DBDBDB" stroke-width="0.5" stroke-dasharray="10 10"/>
<path d="M0.684 8.48V6.986H4.068V20H2.412V8.48H0.684ZM6.88163 13.358C6.88163 11.294 7.21763 9.686 7.88963 8.534C8.56163 7.37 9.73763 6.788 11.4176 6.788C13.0856 6.788 14.2556 7.37 14.9276 8.534C15.5996 9.686 15.9356 11.294 15.9356 13.358C15.9356 15.458 15.5996 17.09 14.9276 18.254C14.2556 19.418 13.0856 20 11.4176 20C9.73763 20 8.56163 19.418 7.88963 18.254C7.21763 17.09 6.88163 15.458 6.88163 13.358ZM14.3156 13.358C14.3156 12.314 14.2436 11.432 14.0996 10.712C13.9676 9.98 13.6856 9.392 13.2536 8.948C12.8336 8.504 12.2216 8.282 11.4176 8.282C10.6016 8.282 9.97763 8.504 9.54563 8.948C9.12563 9.392 8.84363 9.98 8.69963 10.712C8.56763 11.432 8.50163 12.314 8.50163 13.358C8.50163 14.438 8.56763 15.344 8.69963 16.076C8.84363 16.808 9.12563 17.396 9.54563 17.84C9.97763 18.284 10.6016 18.506 11.4176 18.506C12.2216 18.506 12.8336 18.284 13.2536 17.84C13.6856 17.396 13.9676 16.808 14.0996 16.076C14.2436 15.344 14.3156 14.438 14.3156 13.358ZM18.1844 13.358C18.1844 11.294 18.5204 9.686 19.1924 8.534C19.8644 7.37 21.0404 6.788 22.7204 6.788C24.3884 6.788 25.5584 7.37 26.2304 8.534C26.9024 9.686 27.2384 11.294 27.2384 13.358C27.2384 15.458 26.9024 17.09 26.2304 18.254C25.5584 19.418 24.3884 20 22.7204 20C21.0404 20 19.8644 19.418 19.1924 18.254C18.5204 17.09 18.1844 15.458 18.1844 13.358ZM25.6184 13.358C25.6184 12.314 25.5464 11.432 25.4024 10.712C25.2704 9.98 24.9884 9.392 24.5564 8.948C24.1364 8.504 23.5244 8.282 22.7204 8.282C21.9044 8.282 21.2804 8.504 20.8484 8.948C20.4284 9.392 20.1464 9.98 20.0024 10.712C19.8704 11.432 19.8044 12.314 19.8044 13.358C19.8044 14.438 19.8704 15.344 20.0024 16.076C20.1464 16.808 20.4284 17.396 20.8484 17.84C21.2804 18.284 21.9044 18.506 22.7204 18.506C23.5244 18.506 24.1364 18.284 24.5564 17.84C24.9884 17.396 25.2704 16.808 25.4024 16.076C25.5464 15.344 25.6184 14.438 25.6184 13.358Z" fill="#A098AE"/>
<path d="M9.126 91.264L4.122 103H2.466L7.542 91.426H0.594V90.022H9.126V91.264ZM19.2402 91.408H12.9222V95.512C13.1982 95.128 13.6062 94.816 14.1462 94.576C14.6862 94.324 15.2682 94.198 15.8922 94.198C16.8882 94.198 17.6982 94.408 18.3222 94.828C18.9462 95.236 19.3902 95.77 19.6542 96.43C19.9302 97.078 20.0682 97.768 20.0682 98.5C20.0682 99.364 19.9062 100.138 19.5822 100.822C19.2582 101.506 18.7602 102.046 18.0882 102.442C17.4282 102.838 16.6062 103.036 15.6222 103.036C14.3622 103.036 13.3422 102.712 12.5622 102.064C11.7822 101.416 11.3082 100.552 11.1402 99.472H12.7422C12.8982 100.156 13.2282 100.69 13.7322 101.074C14.2362 101.458 14.8722 101.65 15.6402 101.65C16.5882 101.65 17.3022 101.368 17.7822 100.804C18.2622 100.228 18.5022 99.472 18.5022 98.536C18.5022 97.6 18.2622 96.88 17.7822 96.376C17.3022 95.86 16.5942 95.602 15.6582 95.602C15.0222 95.602 14.4642 95.758 13.9842 96.07C13.5162 96.37 13.1742 96.784 12.9582 97.312H11.4102V89.968H19.2402V91.408Z" fill="#A098AE"/>
<path d="M9.414 174.408H3.096V178.512C3.372 178.128 3.78 177.816 4.32 177.576C4.86 177.324 5.442 177.198 6.066 177.198C7.062 177.198 7.872 177.408 8.496 177.828C9.12 178.236 9.564 178.77 9.828 179.43C10.104 180.078 10.242 180.768 10.242 181.5C10.242 182.364 10.08 183.138 9.756 183.822C9.432 184.506 8.934 185.046 8.262 185.442C7.602 185.838 6.78 186.036 5.796 186.036C4.536 186.036 3.516 185.712 2.736 185.064C1.956 184.416 1.482 183.552 1.314 182.472H2.916C3.072 183.156 3.402 183.69 3.906 184.074C4.41 184.458 5.046 184.65 5.814 184.65C6.762 184.65 7.476 184.368 7.956 183.804C8.436 183.228 8.676 182.472 8.676 181.536C8.676 180.6 8.436 179.88 7.956 179.376C7.476 178.86 6.768 178.602 5.832 178.602C5.196 178.602 4.638 178.758 4.158 179.07C3.69 179.37 3.348 179.784 3.132 180.312H1.584V172.968H9.414V174.408ZM12.4187 179.358C12.4187 177.294 12.7547 175.686 13.4267 174.534C14.0987 173.37 15.2747 172.788 16.9547 172.788C18.6227 172.788 19.7927 173.37 20.4647 174.534C21.1367 175.686 21.4727 177.294 21.4727 179.358C21.4727 181.458 21.1367 183.09 20.4647 184.254C19.7927 185.418 18.6227 186 16.9547 186C15.2747 186 14.0987 185.418 13.4267 184.254C12.7547 183.09 12.4187 181.458 12.4187 179.358ZM19.8527 179.358C19.8527 178.314 19.7807 177.432 19.6367 176.712C19.5047 175.98 19.2227 175.392 18.7907 174.948C18.3707 174.504 17.7587 174.282 16.9547 174.282C16.1387 174.282 15.5147 174.504 15.0827 174.948C14.6627 175.392 14.3807 175.98 14.2367 176.712C14.1047 177.432 14.0387 178.314 14.0387 179.358C14.0387 180.438 14.1047 181.344 14.2367 182.076C14.3807 182.808 14.6627 183.396 15.0827 183.84C15.5147 184.284 16.1387 184.506 16.9547 184.506C17.7587 184.506 18.3707 184.284 18.7907 183.84C19.2227 183.396 19.5047 182.808 19.6367 182.076C19.7807 181.344 19.8527 180.438 19.8527 179.358Z" fill="#A098AE"/>
<path d="M0.918 267.686C2.442 266.462 3.636 265.46 4.5 264.68C5.364 263.888 6.09 263.066 6.678 262.214C7.278 261.35 7.578 260.504 7.578 259.676C7.578 258.896 7.386 258.284 7.002 257.84C6.63 257.384 6.024 257.156 5.184 257.156C4.368 257.156 3.732 257.414 3.276 257.93C2.832 258.434 2.592 259.112 2.556 259.964H0.972C1.02 258.62 1.428 257.582 2.196 256.85C2.964 256.118 3.954 255.752 5.166 255.752C6.402 255.752 7.38 256.094 8.1 256.778C8.832 257.462 9.198 258.404 9.198 259.604C9.198 260.6 8.898 261.572 8.298 262.52C7.71 263.456 7.038 264.284 6.282 265.004C5.526 265.712 4.56 266.54 3.384 267.488H9.576V268.856H0.918V267.686ZM19.7675 257.408H13.4495V261.512C13.7255 261.128 14.1335 260.816 14.6735 260.576C15.2135 260.324 15.7955 260.198 16.4195 260.198C17.4155 260.198 18.2255 260.408 18.8495 260.828C19.4735 261.236 19.9175 261.77 20.1815 262.43C20.4575 263.078 20.5955 263.768 20.5955 264.5C20.5955 265.364 20.4335 266.138 20.1095 266.822C19.7855 267.506 19.2875 268.046 18.6155 268.442C17.9555 268.838 17.1335 269.036 16.1495 269.036C14.8895 269.036 13.8695 268.712 13.0895 268.064C12.3095 267.416 11.8355 266.552 11.6675 265.472H13.2695C13.4255 266.156 13.7555 266.69 14.2595 267.074C14.7635 267.458 15.3995 267.65 16.1675 267.65C17.1155 267.65 17.8295 267.368 18.3095 266.804C18.7895 266.228 19.0295 265.472 19.0295 264.536C19.0295 263.6 18.7895 262.88 18.3095 262.376C17.8295 261.86 17.1215 261.602 16.1855 261.602C15.5495 261.602 14.9915 261.758 14.5115 262.07C14.0435 262.37 13.7015 262.784 13.4855 263.312H11.9375V255.968H19.7675V257.408Z" fill="#A098AE"/>
<path d="M1.116 345.358C1.116 343.294 1.452 341.686 2.124 340.534C2.796 339.37 3.972 338.788 5.652 338.788C7.32 338.788 8.49 339.37 9.162 340.534C9.834 341.686 10.17 343.294 10.17 345.358C10.17 347.458 9.834 349.09 9.162 350.254C8.49 351.418 7.32 352 5.652 352C3.972 352 2.796 351.418 2.124 350.254C1.452 349.09 1.116 347.458 1.116 345.358ZM8.55 345.358C8.55 344.314 8.478 343.432 8.334 342.712C8.202 341.98 7.92 341.392 7.488 340.948C7.068 340.504 6.456 340.282 5.652 340.282C4.836 340.282 4.212 340.504 3.78 340.948C3.36 341.392 3.078 341.98 2.934 342.712C2.802 343.432 2.736 344.314 2.736 345.358C2.736 346.438 2.802 347.344 2.934 348.076C3.078 348.808 3.36 349.396 3.78 349.84C4.212 350.284 4.836 350.506 5.652 350.506C6.456 350.506 7.068 350.284 7.488 349.84C7.92 349.396 8.202 348.808 8.334 348.076C8.478 347.344 8.55 346.438 8.55 345.358Z" fill="#A098AE"/>
<path d="M71.704 390.454V399.724C71.704 400.756 71.386 401.584 70.75 402.208C70.114 402.82 69.274 403.126 68.23 403.126C67.174 403.126 66.328 402.814 65.692 402.19C65.056 401.554 64.738 400.69 64.738 399.598H66.376C66.388 400.21 66.544 400.708 66.844 401.092C67.156 401.476 67.618 401.668 68.23 401.668C68.842 401.668 69.298 401.488 69.598 401.128C69.898 400.756 70.048 400.288 70.048 399.724V390.454H71.704ZM74.3189 398.032C74.3189 397.024 74.5229 396.142 74.9309 395.386C75.3389 394.618 75.8969 394.024 76.6049 393.604C77.3249 393.184 78.1229 392.974 78.9989 392.974C79.8629 392.974 80.6129 393.16 81.2489 393.532C81.8849 393.904 82.3589 394.372 82.6709 394.936V393.136H84.3269V403H82.6709V401.164C82.3469 401.74 81.8609 402.22 81.2129 402.604C80.5769 402.976 79.8329 403.162 78.9809 403.162C78.1049 403.162 77.3129 402.946 76.6049 402.514C75.8969 402.082 75.3389 401.476 74.9309 400.696C74.5229 399.916 74.3189 399.028 74.3189 398.032ZM82.6709 398.05C82.6709 397.306 82.5209 396.658 82.2209 396.106C81.9209 395.554 81.5129 395.134 80.9969 394.846C80.4929 394.546 79.9349 394.396 79.3229 394.396C78.7109 394.396 78.1529 394.54 77.6489 394.828C77.1449 395.116 76.7429 395.536 76.4429 396.088C76.1429 396.64 75.9929 397.288 75.9929 398.032C75.9929 398.788 76.1429 399.448 76.4429 400.012C76.7429 400.564 77.1449 400.99 77.6489 401.29C78.1529 401.578 78.7109 401.722 79.3229 401.722C79.9349 401.722 80.4929 401.578 80.9969 401.29C81.5129 400.99 81.9209 400.564 82.2209 400.012C82.5209 399.448 82.6709 398.794 82.6709 398.05ZM91.901 392.956C93.101 392.956 94.073 393.322 94.817 394.054C95.561 394.774 95.933 395.818 95.933 397.186V403H94.313V397.42C94.313 396.436 94.067 395.686 93.575 395.17C93.083 394.642 92.411 394.378 91.559 394.378C90.695 394.378 90.005 394.648 89.489 395.188C88.985 395.728 88.733 396.514 88.733 397.546V403H87.095V393.136H88.733V394.54C89.057 394.036 89.495 393.646 90.047 393.37C90.611 393.094 91.229 392.956 91.901 392.956Z" fill="#A098AE"/>
<path d="M144.478 390.454V391.786H139.024V396.016H143.452V397.348H139.024V403H137.386V390.454H144.478ZM155.456 397.69C155.456 398.002 155.438 398.332 155.402 398.68H147.518C147.578 399.652 147.908 400.414 148.508 400.966C149.12 401.506 149.858 401.776 150.722 401.776C151.43 401.776 152.018 401.614 152.486 401.29C152.966 400.954 153.302 400.51 153.494 399.958H155.258C154.994 400.906 154.466 401.68 153.674 402.28C152.882 402.868 151.898 403.162 150.722 403.162C149.786 403.162 148.946 402.952 148.202 402.532C147.47 402.112 146.894 401.518 146.474 400.75C146.054 399.97 145.844 399.07 145.844 398.05C145.844 397.03 146.048 396.136 146.456 395.368C146.864 394.6 147.434 394.012 148.166 393.604C148.91 393.184 149.762 392.974 150.722 392.974C151.658 392.974 152.486 393.178 153.206 393.586C153.926 393.994 154.478 394.558 154.862 395.278C155.258 395.986 155.456 396.79 155.456 397.69ZM153.764 397.348C153.764 396.724 153.626 396.19 153.35 395.746C153.074 395.29 152.696 394.948 152.216 394.72C151.748 394.48 151.226 394.36 150.65 394.36C149.822 394.36 149.114 394.624 148.526 395.152C147.95 395.68 147.62 396.412 147.536 397.348H153.764ZM159.256 394.972C159.592 394.384 160.084 393.904 160.732 393.532C161.38 393.16 162.118 392.974 162.946 392.974C163.834 392.974 164.632 393.184 165.34 393.604C166.048 394.024 166.606 394.618 167.014 395.386C167.422 396.142 167.626 397.024 167.626 398.032C167.626 399.028 167.422 399.916 167.014 400.696C166.606 401.476 166.042 402.082 165.322 402.514C164.614 402.946 163.822 403.162 162.946 403.162C162.094 403.162 161.344 402.976 160.696 402.604C160.06 402.232 159.58 401.758 159.256 401.182V403H157.618V389.68H159.256V394.972ZM165.952 398.032C165.952 397.288 165.802 396.64 165.502 396.088C165.202 395.536 164.794 395.116 164.278 394.828C163.774 394.54 163.216 394.396 162.604 394.396C162.004 394.396 161.446 394.546 160.93 394.846C160.426 395.134 160.018 395.56 159.706 396.124C159.406 396.676 159.256 397.318 159.256 398.05C159.256 398.794 159.406 399.448 159.706 400.012C160.018 400.564 160.426 400.99 160.93 401.29C161.446 401.578 162.004 401.722 162.604 401.722C163.216 401.722 163.774 401.578 164.278 401.29C164.794 400.99 165.202 400.564 165.502 400.012C165.802 399.448 165.952 398.788 165.952 398.032Z" fill="#A098AE"/>
<path d="M227.112 390.544V403H225.474V393.712L221.334 403H220.182L216.024 393.694V403H214.386V390.544H216.15L220.758 400.84L225.366 390.544H227.112ZM229.278 398.032C229.278 397.024 229.482 396.142 229.89 395.386C230.298 394.618 230.856 394.024 231.564 393.604C232.284 393.184 233.082 392.974 233.958 392.974C234.822 392.974 235.572 393.16 236.208 393.532C236.844 393.904 237.318 394.372 237.63 394.936V393.136H239.286V403H237.63V401.164C237.306 401.74 236.82 402.22 236.172 402.604C235.536 402.976 234.792 403.162 233.94 403.162C233.064 403.162 232.272 402.946 231.564 402.514C230.856 402.082 230.298 401.476 229.89 400.696C229.482 399.916 229.278 399.028 229.278 398.032ZM237.63 398.05C237.63 397.306 237.48 396.658 237.18 396.106C236.88 395.554 236.472 395.134 235.956 394.846C235.452 394.546 234.894 394.396 234.282 394.396C233.67 394.396 233.112 394.54 232.608 394.828C232.104 395.116 231.702 395.536 231.402 396.088C231.102 396.64 230.952 397.288 230.952 398.032C230.952 398.788 231.102 399.448 231.402 400.012C231.702 400.564 232.104 400.99 232.608 401.29C233.112 401.578 233.67 401.722 234.282 401.722C234.894 401.722 235.452 401.578 235.956 401.29C236.472 400.99 236.88 400.564 237.18 400.012C237.48 399.448 237.63 398.794 237.63 398.05ZM243.692 394.738C243.98 394.174 244.388 393.736 244.916 393.424C245.456 393.112 246.11 392.956 246.878 392.956V394.648H246.446C244.61 394.648 243.692 395.644 243.692 397.636V403H242.054V393.136H243.692V394.738Z" fill="#A098AE"/>
<path d="M298.802 400.21H293.33L292.322 403H290.594L295.13 390.526H297.02L301.538 403H299.81L298.802 400.21ZM298.334 398.878L296.066 392.542L293.798 398.878H298.334ZM305.153 394.954C305.477 394.39 305.957 393.922 306.593 393.55C307.241 393.166 307.991 392.974 308.843 392.974C309.719 392.974 310.511 393.184 311.219 393.604C311.939 394.024 312.503 394.618 312.911 395.386C313.319 396.142 313.523 397.024 313.523 398.032C313.523 399.028 313.319 399.916 312.911 400.696C312.503 401.476 311.939 402.082 311.219 402.514C310.511 402.946 309.719 403.162 308.843 403.162C308.003 403.162 307.259 402.976 306.611 402.604C305.975 402.22 305.489 401.746 305.153 401.182V407.68H303.515V393.136H305.153V394.954ZM311.849 398.032C311.849 397.288 311.699 396.64 311.399 396.088C311.099 395.536 310.691 395.116 310.175 394.828C309.671 394.54 309.113 394.396 308.501 394.396C307.901 394.396 307.343 394.546 306.827 394.846C306.323 395.134 305.915 395.56 305.603 396.124C305.303 396.676 305.153 397.318 305.153 398.05C305.153 398.794 305.303 399.448 305.603 400.012C305.915 400.564 306.323 400.99 306.827 401.29C307.343 401.578 307.901 401.722 308.501 401.722C309.113 401.722 309.671 401.578 310.175 401.29C310.691 400.99 311.099 400.564 311.399 400.012C311.699 399.448 311.849 398.788 311.849 398.032ZM317.317 394.738C317.605 394.174 318.013 393.736 318.541 393.424C319.081 393.112 319.735 392.956 320.503 392.956V394.648H320.071C318.235 394.648 317.317 395.644 317.317 397.636V403H315.679V393.136H317.317V394.738Z" fill="#A098AE"/>
<path d="M381.112 390.544V403H379.474V393.712L375.334 403H374.182L370.024 393.694V403H368.386V390.544H370.15L374.758 400.84L379.366 390.544H381.112ZM383.278 398.032C383.278 397.024 383.482 396.142 383.89 395.386C384.298 394.618 384.856 394.024 385.564 393.604C386.284 393.184 387.082 392.974 387.958 392.974C388.822 392.974 389.572 393.16 390.208 393.532C390.844 393.904 391.318 394.372 391.63 394.936V393.136H393.286V403H391.63V401.164C391.306 401.74 390.82 402.22 390.172 402.604C389.536 402.976 388.792 403.162 387.94 403.162C387.064 403.162 386.272 402.946 385.564 402.514C384.856 402.082 384.298 401.476 383.89 400.696C383.482 399.916 383.278 399.028 383.278 398.032ZM391.63 398.05C391.63 397.306 391.48 396.658 391.18 396.106C390.88 395.554 390.472 395.134 389.956 394.846C389.452 394.546 388.894 394.396 388.282 394.396C387.67 394.396 387.112 394.54 386.608 394.828C386.104 395.116 385.702 395.536 385.402 396.088C385.102 396.64 384.952 397.288 384.952 398.032C384.952 398.788 385.102 399.448 385.402 400.012C385.702 400.564 386.104 400.99 386.608 401.29C387.112 401.578 387.67 401.722 388.282 401.722C388.894 401.722 389.452 401.578 389.956 401.29C390.472 400.99 390.88 400.564 391.18 400.012C391.48 399.448 391.63 398.794 391.63 398.05ZM404.55 393.136L398.61 407.644H396.918L398.862 402.892L394.884 393.136H396.702L399.798 401.128L402.858 393.136H404.55Z" fill="#A098AE"/>
<path d="M457.704 390.454V399.724C457.704 400.756 457.386 401.584 456.75 402.208C456.114 402.82 455.274 403.126 454.23 403.126C453.174 403.126 452.328 402.814 451.692 402.19C451.056 401.554 450.738 400.69 450.738 399.598H452.376C452.388 400.21 452.544 400.708 452.844 401.092C453.156 401.476 453.618 401.668 454.23 401.668C454.842 401.668 455.298 401.488 455.598 401.128C455.898 400.756 456.048 400.288 456.048 399.724V390.454H457.704ZM469.679 393.136V403H468.041V401.542C467.729 402.046 467.291 402.442 466.727 402.73C466.175 403.006 465.563 403.144 464.891 403.144C464.123 403.144 463.433 402.988 462.821 402.676C462.209 402.352 461.723 401.872 461.363 401.236C461.015 400.6 460.841 399.826 460.841 398.914V393.136H462.461V398.698C462.461 399.67 462.707 400.42 463.199 400.948C463.691 401.464 464.363 401.722 465.215 401.722C466.091 401.722 466.781 401.452 467.285 400.912C467.789 400.372 468.041 399.586 468.041 398.554V393.136H469.679ZM477.251 392.956C478.451 392.956 479.423 393.322 480.167 394.054C480.911 394.774 481.283 395.818 481.283 397.186V403H479.663V397.42C479.663 396.436 479.417 395.686 478.925 395.17C478.433 394.642 477.761 394.378 476.909 394.378C476.045 394.378 475.355 394.648 474.839 395.188C474.335 395.728 474.083 396.514 474.083 397.546V403H472.445V393.136H474.083V394.54C474.407 394.036 474.845 393.646 475.397 393.37C475.961 393.094 476.579 392.956 477.251 392.956Z" fill="#A098AE"/>
<path d="M535.704 390.454V399.724C535.704 400.756 535.386 401.584 534.75 402.208C534.114 402.82 533.274 403.126 532.23 403.126C531.174 403.126 530.328 402.814 529.692 402.19C529.056 401.554 528.738 400.69 528.738 399.598H530.376C530.388 400.21 530.544 400.708 530.844 401.092C531.156 401.476 531.618 401.668 532.23 401.668C532.842 401.668 533.298 401.488 533.598 401.128C533.898 400.756 534.048 400.288 534.048 399.724V390.454H535.704ZM547.679 393.136V403H546.041V401.542C545.729 402.046 545.291 402.442 544.727 402.73C544.175 403.006 543.563 403.144 542.891 403.144C542.123 403.144 541.433 402.988 540.821 402.676C540.209 402.352 539.723 401.872 539.363 401.236C539.015 400.6 538.841 399.826 538.841 398.914V393.136H540.461V398.698C540.461 399.67 540.707 400.42 541.199 400.948C541.691 401.464 542.363 401.722 543.215 401.722C544.091 401.722 544.781 401.452 545.285 400.912C545.789 400.372 546.041 399.586 546.041 398.554V393.136H547.679ZM552.083 389.68V403H550.445V389.68H552.083Z" fill="#374557"/>
<path d="M601.802 400.21H596.33L595.322 403H593.594L598.13 390.526H600.02L604.538 403H602.81L601.802 400.21ZM601.334 398.878L599.066 392.542L596.798 398.878H601.334ZM615.263 393.136V403H613.625V401.542C613.313 402.046 612.875 402.442 612.311 402.73C611.759 403.006 611.147 403.144 610.475 403.144C609.707 403.144 609.017 402.988 608.405 402.676C607.793 402.352 607.307 401.872 606.947 401.236C606.599 400.6 606.425 399.826 606.425 398.914V393.136H608.045V398.698C608.045 399.67 608.291 400.42 608.783 400.948C609.275 401.464 609.947 401.722 610.799 401.722C611.675 401.722 612.365 401.452 612.869 400.912C613.373 400.372 613.625 399.586 613.625 398.554V393.136H615.263ZM622.097 392.974C622.949 392.974 623.693 393.16 624.329 393.532C624.977 393.904 625.457 394.372 625.769 394.936V393.136H627.425V403.216C627.425 404.116 627.233 404.914 626.849 405.61C626.465 406.318 625.913 406.87 625.193 407.266C624.485 407.662 623.657 407.86 622.709 407.86C621.413 407.86 620.333 407.554 619.469 406.942C618.605 406.33 618.095 405.496 617.939 404.44H619.559C619.739 405.04 620.111 405.52 620.675 405.88C621.239 406.252 621.917 406.438 622.709 406.438C623.609 406.438 624.341 406.156 624.905 405.592C625.481 405.028 625.769 404.236 625.769 403.216V401.146C625.445 401.722 624.965 402.202 624.329 402.586C623.693 402.97 622.949 403.162 622.097 403.162C621.221 403.162 620.423 402.946 619.703 402.514C618.995 402.082 618.437 401.476 618.029 400.696C617.621 399.916 617.417 399.028 617.417 398.032C617.417 397.024 617.621 396.142 618.029 395.386C618.437 394.618 618.995 394.024 619.703 393.604C620.423 393.184 621.221 392.974 622.097 392.974ZM625.769 398.05C625.769 397.306 625.619 396.658 625.319 396.106C625.019 395.554 624.611 395.134 624.095 394.846C623.591 394.546 623.033 394.396 622.421 394.396C621.809 394.396 621.251 394.54 620.747 394.828C620.243 395.116 619.841 395.536 619.541 396.088C619.241 396.64 619.091 397.288 619.091 398.032C619.091 398.788 619.241 399.448 619.541 400.012C619.841 400.564 620.243 400.99 620.747 401.29C621.251 401.578 621.809 401.722 622.421 401.722C623.033 401.722 623.591 401.578 624.095 401.29C624.611 400.99 625.019 400.564 625.319 400.012C625.619 399.448 625.769 398.794 625.769 398.05Z" fill="#A098AE"/>
<path d="M679.364 403.126C678.536 403.126 677.792 402.982 677.132 402.694C676.484 402.394 675.974 401.986 675.602 401.47C675.23 400.942 675.038 400.336 675.026 399.652H676.772C676.832 400.24 677.072 400.738 677.492 401.146C677.924 401.542 678.548 401.74 679.364 401.74C680.144 401.74 680.756 401.548 681.2 401.164C681.656 400.768 681.884 400.264 681.884 399.652C681.884 399.172 681.752 398.782 681.488 398.482C681.224 398.182 680.894 397.954 680.498 397.798C680.102 397.642 679.568 397.474 678.896 397.294C678.068 397.078 677.402 396.862 676.898 396.646C676.406 396.43 675.98 396.094 675.62 395.638C675.272 395.17 675.098 394.546 675.098 393.766C675.098 393.082 675.272 392.476 675.62 391.948C675.968 391.42 676.454 391.012 677.078 390.724C677.714 390.436 678.44 390.292 679.256 390.292C680.432 390.292 681.392 390.586 682.136 391.174C682.892 391.762 683.318 392.542 683.414 393.514H681.614C681.554 393.034 681.302 392.614 680.858 392.254C680.414 391.882 679.826 391.696 679.094 391.696C678.41 391.696 677.852 391.876 677.42 392.236C676.988 392.584 676.772 393.076 676.772 393.712C676.772 394.168 676.898 394.54 677.15 394.828C677.414 395.116 677.732 395.338 678.104 395.494C678.488 395.638 679.022 395.806 679.706 395.998C680.534 396.226 681.2 396.454 681.704 396.682C682.208 396.898 682.64 397.24 683 397.708C683.36 398.164 683.54 398.788 683.54 399.58C683.54 400.192 683.378 400.768 683.054 401.308C682.73 401.848 682.25 402.286 681.614 402.622C680.978 402.958 680.228 403.126 679.364 403.126ZM694.95 397.69C694.95 398.002 694.932 398.332 694.896 398.68H687.012C687.072 399.652 687.402 400.414 688.002 400.966C688.614 401.506 689.352 401.776 690.216 401.776C690.924 401.776 691.512 401.614 691.98 401.29C692.46 400.954 692.796 400.51 692.988 399.958H694.752C694.488 400.906 693.96 401.68 693.168 402.28C692.376 402.868 691.392 403.162 690.216 403.162C689.28 403.162 688.44 402.952 687.696 402.532C686.964 402.112 686.388 401.518 685.968 400.75C685.548 399.97 685.338 399.07 685.338 398.05C685.338 397.03 685.542 396.136 685.95 395.368C686.358 394.6 686.928 394.012 687.66 393.604C688.404 393.184 689.256 392.974 690.216 392.974C691.152 392.974 691.98 393.178 692.7 393.586C693.42 393.994 693.972 394.558 694.356 395.278C694.752 395.986 694.95 396.79 694.95 397.69ZM693.258 397.348C693.258 396.724 693.12 396.19 692.844 395.746C692.568 395.29 692.19 394.948 691.71 394.72C691.242 394.48 690.72 394.36 690.144 394.36C689.316 394.36 688.608 394.624 688.02 395.152C687.444 395.68 687.114 396.412 687.03 397.348H693.258ZM698.751 394.954C699.075 394.39 699.555 393.922 700.191 393.55C700.839 393.166 701.589 392.974 702.441 392.974C703.317 392.974 704.109 393.184 704.817 393.604C705.537 394.024 706.101 394.618 706.509 395.386C706.917 396.142 707.121 397.024 707.121 398.032C707.121 399.028 706.917 399.916 706.509 400.696C706.101 401.476 705.537 402.082 704.817 402.514C704.109 402.946 703.317 403.162 702.441 403.162C701.601 403.162 700.857 402.976 700.209 402.604C699.573 402.22 699.087 401.746 698.751 401.182V407.68H697.113V393.136H698.751V394.954ZM705.447 398.032C705.447 397.288 705.297 396.64 704.997 396.088C704.697 395.536 704.289 395.116 703.773 394.828C703.269 394.54 702.711 394.396 702.099 394.396C701.499 394.396 700.941 394.546 700.425 394.846C699.921 395.134 699.513 395.56 699.201 396.124C698.901 396.676 698.751 397.318 698.751 398.05C698.751 398.794 698.901 399.448 699.201 400.012C699.513 400.564 699.921 400.99 700.425 401.29C700.941 401.578 701.499 401.722 702.099 401.722C702.711 401.722 703.269 401.578 703.773 401.29C704.289 400.99 704.697 400.564 704.997 400.012C705.297 399.448 705.447 398.788 705.447 398.032Z" fill="#A098AE"/>
<path d="M760.074 403.126C758.91 403.126 757.848 402.856 756.888 402.316C755.928 401.764 755.166 401.002 754.602 400.03C754.05 399.046 753.774 397.942 753.774 396.718C753.774 395.494 754.05 394.396 754.602 393.424C755.166 392.44 755.928 391.678 756.888 391.138C757.848 390.586 758.91 390.31 760.074 390.31C761.25 390.31 762.318 390.586 763.278 391.138C764.238 391.678 764.994 392.434 765.546 393.406C766.098 394.378 766.374 395.482 766.374 396.718C766.374 397.954 766.098 399.058 765.546 400.03C764.994 401.002 764.238 401.764 763.278 402.316C762.318 402.856 761.25 403.126 760.074 403.126ZM760.074 401.704C760.95 401.704 761.736 401.5 762.432 401.092C763.14 400.684 763.692 400.102 764.088 399.346C764.496 398.59 764.7 397.714 764.7 396.718C764.7 395.71 764.496 394.834 764.088 394.09C763.692 393.334 763.146 392.752 762.45 392.344C761.754 391.936 760.962 391.732 760.074 391.732C759.186 391.732 758.394 391.936 757.698 392.344C757.002 392.752 756.45 393.334 756.042 394.09C755.646 394.834 755.448 395.71 755.448 396.718C755.448 397.714 755.646 398.59 756.042 399.346C756.45 400.102 757.002 400.684 757.698 401.092C758.406 401.5 759.198 401.704 760.074 401.704ZM767.924 398.05C767.924 397.03 768.128 396.142 768.536 395.386C768.944 394.618 769.508 394.024 770.228 393.604C770.96 393.184 771.794 392.974 772.73 392.974C773.942 392.974 774.938 393.268 775.718 393.856C776.51 394.444 777.032 395.26 777.284 396.304H775.52C775.352 395.704 775.022 395.23 774.53 394.882C774.05 394.534 773.45 394.36 772.73 394.36C771.794 394.36 771.038 394.684 770.462 395.332C769.886 395.968 769.598 396.874 769.598 398.05C769.598 399.238 769.886 400.156 770.462 400.804C771.038 401.452 771.794 401.776 772.73 401.776C773.45 401.776 774.05 401.608 774.53 401.272C775.01 400.936 775.34 400.456 775.52 399.832H777.284C777.02 400.84 776.492 401.65 775.7 402.262C774.908 402.862 773.918 403.162 772.73 403.162C771.794 403.162 770.96 402.952 770.228 402.532C769.508 402.112 768.944 401.518 768.536 400.75C768.128 399.982 767.924 399.082 767.924 398.05ZM781.468 394.486V400.3C781.468 400.78 781.57 401.122 781.774 401.326C781.978 401.518 782.332 401.614 782.836 401.614H784.042V403H782.566C781.654 403 780.97 402.79 780.514 402.37C780.058 401.95 779.83 401.26 779.83 400.3V394.486H778.552V393.136H779.83V390.652H781.468V393.136H784.042V394.486H781.468Z" fill="#A098AE"/>
<path d="M843.25 403H841.612L835.024 393.01V403H833.386V390.436H835.024L841.612 400.408V390.436H843.25V403ZM850.344 403.162C849.42 403.162 848.58 402.952 847.824 402.532C847.08 402.112 846.492 401.518 846.06 400.75C845.64 399.97 845.43 399.07 845.43 398.05C845.43 397.042 845.646 396.154 846.078 395.386C846.522 394.606 847.122 394.012 847.878 393.604C848.634 393.184 849.48 392.974 850.416 392.974C851.352 392.974 852.198 393.184 852.954 393.604C853.71 394.012 854.304 394.6 854.736 395.368C855.18 396.136 855.402 397.03 855.402 398.05C855.402 399.07 855.174 399.97 854.718 400.75C854.274 401.518 853.668 402.112 852.9 402.532C852.132 402.952 851.28 403.162 850.344 403.162ZM850.344 401.722C850.932 401.722 851.484 401.584 852 401.308C852.516 401.032 852.93 400.618 853.242 400.066C853.566 399.514 853.728 398.842 853.728 398.05C853.728 397.258 853.572 396.586 853.26 396.034C852.948 395.482 852.54 395.074 852.036 394.81C851.532 394.534 850.986 394.396 850.398 394.396C849.798 394.396 849.246 394.534 848.742 394.81C848.25 395.074 847.854 395.482 847.554 396.034C847.254 396.586 847.104 397.258 847.104 398.05C847.104 398.854 847.248 399.532 847.536 400.084C847.836 400.636 848.232 401.05 848.724 401.326C849.216 401.59 849.756 401.722 850.344 401.722ZM861.228 401.488L864.288 393.136H866.034L862.164 403H860.256L856.386 393.136H858.15L861.228 401.488Z" fill="#A098AE"/>
<path d="M911.292 390.454C912.66 390.454 913.842 390.712 914.838 391.228C915.846 391.732 916.614 392.458 917.142 393.406C917.682 394.354 917.952 395.47 917.952 396.754C917.952 398.038 917.682 399.154 917.142 400.102C916.614 401.038 915.846 401.758 914.838 402.262C913.842 402.754 912.66 403 911.292 403H907.386V390.454H911.292ZM911.292 401.65C912.912 401.65 914.148 401.224 915 400.372C915.852 399.508 916.278 398.302 916.278 396.754C916.278 395.194 915.846 393.976 914.982 393.1C914.13 392.224 912.9 391.786 911.292 391.786H909.024V401.65H911.292ZM929.113 397.69C929.113 398.002 929.095 398.332 929.059 398.68H921.175C921.235 399.652 921.565 400.414 922.165 400.966C922.777 401.506 923.515 401.776 924.379 401.776C925.087 401.776 925.675 401.614 926.143 401.29C926.623 400.954 926.959 400.51 927.151 399.958H928.915C928.651 400.906 928.123 401.68 927.331 402.28C926.539 402.868 925.555 403.162 924.379 403.162C923.443 403.162 922.603 402.952 921.859 402.532C921.127 402.112 920.551 401.518 920.131 400.75C919.711 399.97 919.501 399.07 919.501 398.05C919.501 397.03 919.705 396.136 920.113 395.368C920.521 394.6 921.091 394.012 921.823 393.604C922.567 393.184 923.419 392.974 924.379 392.974C925.315 392.974 926.143 393.178 926.863 393.586C927.583 393.994 928.135 394.558 928.519 395.278C928.915 395.986 929.113 396.79 929.113 397.69ZM927.421 397.348C927.421 396.724 927.283 396.19 927.007 395.746C926.731 395.29 926.353 394.948 925.873 394.72C925.405 394.48 924.883 394.36 924.307 394.36C923.479 394.36 922.771 394.624 922.183 395.152C921.607 395.68 921.277 396.412 921.193 397.348H927.421ZM930.663 398.05C930.663 397.03 930.867 396.142 931.275 395.386C931.683 394.618 932.247 394.024 932.967 393.604C933.699 393.184 934.533 392.974 935.469 392.974C936.681 392.974 937.677 393.268 938.457 393.856C939.249 394.444 939.771 395.26 940.023 396.304H938.259C938.091 395.704 937.761 395.23 937.269 394.882C936.789 394.534 936.189 394.36 935.469 394.36C934.533 394.36 933.777 394.684 933.201 395.332C932.625 395.968 932.337 396.874 932.337 398.05C932.337 399.238 932.625 400.156 933.201 400.804C933.777 401.452 934.533 401.776 935.469 401.776C936.189 401.776 936.789 401.608 937.269 401.272C937.749 400.936 938.079 400.456 938.259 399.832H940.023C939.759 400.84 939.231 401.65 938.439 402.262C937.647 402.862 936.657 403.162 935.469 403.162C934.533 403.162 933.699 402.952 932.967 402.532C932.247 402.112 931.683 401.518 931.275 400.75C930.867 399.982 930.663 399.082 930.663 398.05Z" fill="#A098AE"/>
</svg>
