<svg width="568" height="153" viewBox="0 0 568 153" fill="none" xmlns="http://www.w3.org/2000/svg">
<path d="M2 114.847L11.4167 113.668C20.8333 112.489 39.6667 110.131 58.5 105.958C77.3333 101.784 96.1667 95.7954 115 86.5363C133.833 77.2773 152.667 64.7481 171.5 55.7096C190.333 46.671 209.167 41.1231 228 53.0858C246.833 65.0485 265.667 94.5218 284.5 93.0232C303.333 91.5246 322.167 59.054 341 41.5276C359.833 24.0013 378.667 21.4191 397.5 38.8119C416.333 56.2047 435.167 93.5724 454 109.594C472.833 125.616 491.667 120.293 510.5 112.497C529.333 104.701 548.167 94.4329 557.583 89.2989L567 84.1649" stroke="#FEC64F" stroke-width="4"/>
<path d="M2 120L13.75 107.75C25.5 95.4991 49 70.9982 72.5 61.5057C96 52.0132 119.5 57.5291 143 68.3703C166.5 79.2114 190 95.3779 213.5 95.2979C237 95.2179 260.5 78.8914 284 84.9185C307.5 90.9455 331 119.326 354.5 107.863C378 96.3996 401.5 45.0927 425 37.9157C448.5 30.7387 472 67.6916 495.5 81.1277C519 94.5637 542.5 84.4829 554.25 79.4424L566 74.402" stroke="#4CBC9A" stroke-width="4"/>
<rect x="2" y="153" width="130" height="1.00001" rx="0.500007" transform="rotate(-90 2 153)" fill="#DBDBDB"/>
<rect x="97" y="153" width="130" height="1.00001" rx="0.500006" transform="rotate(-90 97 153)" fill="#DBDBDB"/>
<rect x="190" y="153" width="130" height="1.00001" rx="0.500006" transform="rotate(-90 190 153)" fill="#DBDBDB"/>
<rect x="285" y="153" width="130" height="1.00001" rx="0.500006" transform="rotate(-90 285 153)" fill="#DBDBDB"/>
<rect x="378" y="153" width="130" height="1.00001" rx="0.500006" transform="rotate(-90 378 153)" fill="#DBDBDB"/>
<rect x="471" y="153" width="130" height="1.00001" rx="0.500006" transform="rotate(-90 471 153)" fill="#DBDBDB"/>
<rect x="566" y="153" width="130" height="1.00001" rx="0.500006" transform="rotate(-90 566 153)" fill="#DBDBDB"/>
<rect x="232" width="105" height="74" rx="16" fill="#374557"/>
<path d="M285 83L290.196 74H279.804L285 83Z" fill="#374557"/>
<path d="M275.115 21.568C275.163 20.284 275.583 19.294 276.375 18.598C277.167 17.902 278.241 17.554 279.597 17.554C280.497 17.554 281.265 17.71 281.901 18.022C282.549 18.334 283.035 18.76 283.359 19.3C283.695 19.84 283.863 20.446 283.863 21.118C283.863 21.91 283.665 22.558 283.269 23.062C282.873 23.554 282.411 23.89 281.883 24.07V24.142C282.567 24.37 283.107 24.748 283.503 25.276C283.899 25.804 284.097 26.482 284.097 27.31C284.097 28.054 283.923 28.714 283.575 29.29C283.239 29.854 282.741 30.298 282.081 30.622C281.433 30.946 280.659 31.108 279.759 31.108C278.319 31.108 277.167 30.754 276.303 30.046C275.451 29.338 275.001 28.27 274.953 26.842H277.941C277.953 27.37 278.103 27.79 278.391 28.102C278.679 28.402 279.099 28.552 279.651 28.552C280.119 28.552 280.479 28.42 280.731 28.156C280.995 27.88 281.127 27.52 281.127 27.076C281.127 26.5 280.941 26.086 280.569 25.834C280.209 25.57 279.627 25.438 278.823 25.438H278.247V22.936H278.823C279.435 22.936 279.927 22.834 280.299 22.63C280.683 22.414 280.875 22.036 280.875 21.496C280.875 21.064 280.755 20.728 280.515 20.488C280.275 20.248 279.945 20.128 279.525 20.128C279.069 20.128 278.727 20.266 278.499 20.542C278.283 20.818 278.157 21.16 278.121 21.568H275.115ZM295.158 20.542H289.542V23.026C289.782 22.762 290.118 22.546 290.55 22.378C290.982 22.21 291.45 22.126 291.954 22.126C292.854 22.126 293.598 22.33 294.186 22.738C294.786 23.146 295.224 23.674 295.5 24.322C295.776 24.97 295.914 25.672 295.914 26.428C295.914 27.832 295.518 28.948 294.726 29.776C293.934 30.592 292.818 31 291.378 31C290.418 31 289.584 30.838 288.876 30.514C288.168 30.178 287.622 29.716 287.238 29.128C286.854 28.54 286.644 27.862 286.608 27.094H289.614C289.686 27.466 289.86 27.778 290.136 28.03C290.412 28.27 290.79 28.39 291.27 28.39C291.834 28.39 292.254 28.21 292.53 27.85C292.806 27.49 292.944 27.01 292.944 26.41C292.944 25.822 292.8 25.372 292.512 25.06C292.224 24.748 291.804 24.592 291.252 24.592C290.844 24.592 290.508 24.694 290.244 24.898C289.98 25.09 289.806 25.348 289.722 25.672H286.752V17.842H295.158V20.542Z" fill="white"/>
<path d="M254.562 47.242V48.278H251.902V57H250.628V48.278H247.954V47.242H254.562ZM259.938 49.188C260.516 49.188 261.039 49.314 261.506 49.566C261.972 49.8087 262.336 50.1773 262.598 50.672C262.868 51.1667 263.004 51.7687 263.004 52.478V57H261.744V52.66C261.744 51.8947 261.552 51.3113 261.17 50.91C260.787 50.4993 260.264 50.294 259.602 50.294C258.93 50.294 258.393 50.504 257.992 50.924C257.6 51.344 257.404 51.9553 257.404 52.758V57H256.13V46.64H257.404V50.42C257.656 50.028 258.001 49.7247 258.44 49.51C258.888 49.2953 259.387 49.188 259.938 49.188ZM265.743 48.082C265.5 48.082 265.295 47.998 265.127 47.83C264.959 47.662 264.875 47.4567 264.875 47.214C264.875 46.9713 264.959 46.766 265.127 46.598C265.295 46.43 265.5 46.346 265.743 46.346C265.976 46.346 266.172 46.43 266.331 46.598C266.499 46.766 266.583 46.9713 266.583 47.214C266.583 47.4567 266.499 47.662 266.331 47.83C266.172 47.998 265.976 48.082 265.743 48.082ZM266.359 49.328V57H265.085V49.328H266.359ZM271.246 57.126C270.658 57.126 270.131 57.028 269.664 56.832C269.197 56.6267 268.829 56.3467 268.558 55.992C268.287 55.628 268.138 55.2127 268.11 54.746H269.426C269.463 55.1287 269.641 55.4413 269.958 55.684C270.285 55.9267 270.709 56.048 271.232 56.048C271.717 56.048 272.1 55.9407 272.38 55.726C272.66 55.5113 272.8 55.2407 272.8 54.914C272.8 54.578 272.651 54.3307 272.352 54.172C272.053 54.004 271.591 53.8407 270.966 53.682C270.397 53.5327 269.93 53.3833 269.566 53.234C269.211 53.0753 268.903 52.8467 268.642 52.548C268.39 52.24 268.264 51.8387 268.264 51.344C268.264 50.952 268.381 50.5927 268.614 50.266C268.847 49.9393 269.179 49.6827 269.608 49.496C270.037 49.3 270.527 49.202 271.078 49.202C271.927 49.202 272.613 49.4167 273.136 49.846C273.659 50.2753 273.939 50.8633 273.976 51.61H272.702C272.674 51.2087 272.511 50.8867 272.212 50.644C271.923 50.4013 271.531 50.28 271.036 50.28C270.579 50.28 270.215 50.378 269.944 50.574C269.673 50.77 269.538 51.0267 269.538 51.344C269.538 51.596 269.617 51.806 269.776 51.974C269.944 52.1327 270.149 52.2633 270.392 52.366C270.644 52.4593 270.989 52.5667 271.428 52.688C271.979 52.8373 272.427 52.9867 272.772 53.136C273.117 53.276 273.411 53.4907 273.654 53.78C273.906 54.0693 274.037 54.4473 274.046 54.914C274.046 55.334 273.929 55.712 273.696 56.048C273.463 56.384 273.131 56.65 272.702 56.846C272.282 57.0327 271.797 57.126 271.246 57.126ZM289.475 47.312V57H288.201V49.776L284.981 57H284.085L280.851 49.762V57H279.577V47.312H280.949L284.533 55.32L288.117 47.312H289.475ZM294.982 57.126C294.263 57.126 293.61 56.9627 293.022 56.636C292.443 56.3093 291.986 55.8473 291.65 55.25C291.323 54.6433 291.16 53.9433 291.16 53.15C291.16 52.366 291.328 51.6753 291.664 51.078C292.009 50.4713 292.476 50.0093 293.064 49.692C293.652 49.3653 294.31 49.202 295.038 49.202C295.766 49.202 296.424 49.3653 297.012 49.692C297.6 50.0093 298.062 50.4667 298.398 51.064C298.743 51.6613 298.916 52.3567 298.916 53.15C298.916 53.9433 298.738 54.6433 298.384 55.25C298.038 55.8473 297.567 56.3093 296.97 56.636C296.372 56.9627 295.71 57.126 294.982 57.126ZM294.982 56.006C295.439 56.006 295.868 55.8987 296.27 55.684C296.671 55.4693 296.993 55.1473 297.236 54.718C297.488 54.2887 297.614 53.766 297.614 53.15C297.614 52.534 297.492 52.0113 297.25 51.582C297.007 51.1527 296.69 50.8353 296.298 50.63C295.906 50.4153 295.481 50.308 295.024 50.308C294.557 50.308 294.128 50.4153 293.736 50.63C293.353 50.8353 293.045 51.1527 292.812 51.582C292.578 52.0113 292.462 52.534 292.462 53.15C292.462 53.7753 292.574 54.3027 292.798 54.732C293.031 55.1613 293.339 55.4833 293.722 55.698C294.104 55.9033 294.524 56.006 294.982 56.006ZM304.329 49.188C305.262 49.188 306.018 49.4727 306.597 50.042C307.175 50.602 307.465 51.414 307.465 52.478V57H306.205V52.66C306.205 51.8947 306.013 51.3113 305.631 50.91C305.248 50.4993 304.725 50.294 304.063 50.294C303.391 50.294 302.854 50.504 302.453 50.924C302.061 51.344 301.865 51.9553 301.865 52.758V57H300.591V49.328H301.865V50.42C302.117 50.028 302.457 49.7247 302.887 49.51C303.325 49.2953 303.806 49.188 304.329 49.188ZM311.1 50.378V54.9C311.1 55.2733 311.179 55.5393 311.338 55.698C311.496 55.8473 311.772 55.922 312.164 55.922H313.102V57H311.954C311.244 57 310.712 56.8367 310.358 56.51C310.003 56.1833 309.826 55.6467 309.826 54.9V50.378H308.832V49.328H309.826V47.396H311.1V49.328H313.102V50.378H311.1ZM318.453 49.188C319.032 49.188 319.555 49.314 320.021 49.566C320.488 49.8087 320.852 50.1773 321.113 50.672C321.384 51.1667 321.519 51.7687 321.519 52.478V57H320.259V52.66C320.259 51.8947 320.068 51.3113 319.685 50.91C319.303 50.4993 318.78 50.294 318.117 50.294C317.445 50.294 316.909 50.504 316.507 50.924C316.115 51.344 315.919 51.9553 315.919 52.758V57H314.645V46.64H315.919V50.42C316.171 50.028 316.517 49.7247 316.955 49.51C317.403 49.2953 317.903 49.188 318.453 49.188Z" fill="white"/>
</svg>
