<svg width="32" height="33" viewBox="0 0 32 33" fill="none" xmlns="http://www.w3.org/2000/svg">
<path d="M11.9999 16.5C11.9989 16.3245 12.0325 16.1506 12.0989 15.9881C12.1652 15.8257 12.263 15.6779 12.3866 15.5533L17.7199 10.22C17.971 9.96893 18.3115 9.82788 18.6666 9.82788C19.0217 9.82788 19.3622 9.96893 19.6132 10.22C19.8643 10.4711 20.0054 10.8116 20.0054 11.1667C20.0054 11.5217 19.8643 11.8623 19.6132 12.1133L15.2132 16.5L19.5999 20.8867C19.8184 21.1417 19.9325 21.4698 19.9195 21.8054C19.9066 22.141 19.7675 22.4593 19.53 22.6968C19.2925 22.9342 18.9742 23.0733 18.6387 23.0863C18.3031 23.0992 17.975 22.9851 17.7199 22.7667L12.3866 17.4333C12.1403 17.185 12.0014 16.8498 11.9999 16.5Z" fill="#A098AE"/>
</svg>
