<svg width="48" height="48" viewBox="0 0 48 48" fill="none" xmlns="http://www.w3.org/2000/svg">
<path d="M40.185 12.705H34.95C34.41 12.705 33.99 12.27 33.99 11.745V7.24499C33.99 4.84502 32.52 2.82007 30.24 2.07007C27.96 1.32007 25.56 2.07007 24.135 4.00504L17.985 12.315C17.805 12.5551 17.52 12.705 17.22 12.705H6.21001C3.195 12.705 0.75 15.15 0.75 18.165V36.1951C0.75 39.2101 3.195 41.655 6.21001 41.655H13.71L34.635 46.065C35.13 46.17 35.61 46.215 36.105 46.215C37.68 46.215 39.21 45.69 40.47 44.7L44.565 41.475C46.275 40.1251 47.25 38.1 47.25 35.9251V19.77C47.25 15.87 44.085 12.705 40.185 12.705ZM11.685 37.155H6.21001C5.68497 37.155 5.25 36.735 5.25 36.1951V18.165C5.25 17.6251 5.68497 17.205 6.21001 17.205H11.685V37.155H11.685Z" fill="white"/>
</svg>
