<svg width="24" height="24" viewBox="0 0 24 24" fill="none" xmlns="http://www.w3.org/2000/svg">
<g clip-path="url(#clip0_1067_55)">
<path d="M15.7799 0.377472C13.6825 0.377472 11.7129 1.19142 10.2337 2.67105L9.08939 3.81569C8.81478 4.0903 8.66395 4.45509 8.66395 4.84323C8.66395 5.23215 8.8151 5.59689 9.08976 5.87082C9.63935 6.42009 10.5963 6.42009 11.1452 5.87082L12.2892 4.72619C14.2137 2.80235 17.3457 2.80303 19.2703 4.72619C20.2042 5.66007 20.7183 6.89979 20.7183 8.21691C20.7183 9.53399 20.2038 10.7738 19.2699 11.7076L18.1256 12.8523C17.851 13.1269 17.7002 13.4917 17.7002 13.8799C17.7002 14.2687 17.8514 14.6335 18.126 14.9074C18.4006 15.182 18.7654 15.3332 19.1536 15.3332C19.5417 15.3332 19.9068 15.182 20.1815 14.9074L21.3254 13.7628C22.8082 12.2796 23.625 10.3103 23.625 8.2169C23.625 6.12345 22.8082 4.1542 21.3254 2.67105C19.8465 1.19142 17.8773 0.377472 15.7799 0.377472ZM8.21369 23.6225C10.3107 23.6225 12.2803 22.8078 13.7599 21.3289L14.9042 20.1843C15.1788 19.9097 15.3296 19.5449 15.3296 19.1567C15.3296 18.7679 15.1785 18.4031 14.9039 18.1292C14.3542 17.5792 13.3973 17.5806 12.8484 18.1292L11.7044 19.2738C9.7813 21.1983 6.64892 21.1991 4.72297 19.2738C2.79844 17.3493 2.79844 14.2169 4.72297 12.2924L5.86761 11.1477C6.43427 10.5814 6.43427 9.65885 5.86761 9.0926C5.30131 8.5263 4.37878 8.5263 3.81248 9.0926L2.66785 10.2372C-0.389282 13.2951 -0.389282 18.2711 2.66785 21.3289C4.14673 22.8078 6.11635 23.6225 8.21369 23.6225Z" fill="#374557"/>
<path d="M7.06253 16.9348C7.33714 17.2095 7.70189 17.3606 8.09008 17.3606C8.47863 17.3606 8.84369 17.2095 9.11762 16.9348L16.9315 9.12026C17.2061 8.84564 17.3573 8.4809 17.3573 8.09271C17.3573 7.70453 17.2061 7.33978 16.9315 7.06512C16.3826 6.51585 15.4246 6.51585 14.8764 7.06512L7.06253 14.8797C6.78787 15.1544 6.63672 15.5191 6.63672 15.9073C6.63672 16.2955 6.78787 16.6602 7.06253 16.9348Z" fill="#374557"/>
</g>
<defs>
<clipPath id="clip0_1067_55">
<rect width="24" height="24" fill="white"/>
</clipPath>
</defs>
</svg>
