<svg width="32" height="32" viewBox="0 0 32 32" fill="none" xmlns="http://www.w3.org/2000/svg">
<path d="M15.9997 2.66675C13.1707 2.66675 10.4576 3.79055 8.4572 5.79094C6.45681 7.79133 5.33301 10.5044 5.33301 13.3334C5.33301 20.5334 14.733 28.6667 15.133 29.0134C15.3745 29.22 15.6819 29.3335 15.9997 29.3335C16.3175 29.3335 16.6248 29.22 16.8663 29.0134C17.333 28.6667 26.6663 20.5334 26.6663 13.3334C26.6663 10.5044 25.5425 7.79133 23.5421 5.79094C21.5418 3.79055 18.8286 2.66675 15.9997 2.66675ZM15.9997 26.2001C13.1597 23.5334 7.99967 17.7867 7.99967 13.3334C7.99967 11.2117 8.84253 9.17685 10.3428 7.67656C11.8431 6.17627 13.8779 5.33341 15.9997 5.33341C18.1214 5.33341 20.1562 6.17627 21.6565 7.67656C23.1568 9.17685 23.9997 11.2117 23.9997 13.3334C23.9997 17.7867 18.8397 23.5467 15.9997 26.2001ZM15.9997 8.00008C14.9448 8.00008 13.9137 8.31288 13.0366 8.89891C12.1596 9.48494 11.476 10.3179 11.0723 11.2924C10.6686 12.267 10.563 13.3393 10.7688 14.3739C10.9746 15.4085 11.4826 16.3588 12.2284 17.1047C12.9743 17.8505 13.9246 18.3585 14.9592 18.5643C15.9938 18.7701 17.0661 18.6644 18.0407 18.2608C19.0152 17.8571 19.8481 17.1735 20.4342 16.2965C21.0202 15.4194 21.333 14.3882 21.333 13.3334C21.333 11.9189 20.7711 10.5624 19.7709 9.56218C18.7707 8.56198 17.4142 8.00008 15.9997 8.00008ZM15.9997 16.0001C15.4723 16.0001 14.9567 15.8437 14.5182 15.5507C14.0796 15.2577 13.7378 14.8412 13.536 14.3539C13.3342 13.8666 13.2814 13.3305 13.3842 12.8132C13.4871 12.2959 13.7411 11.8207 14.1141 11.4478C14.487 11.0749 14.9622 10.8209 15.4794 10.718C15.9967 10.6151 16.5329 10.6679 17.0202 10.8697C17.5074 11.0716 17.9239 11.4134 18.2169 11.8519C18.5099 12.2904 18.6663 12.806 18.6663 13.3334C18.6663 14.0407 18.3854 14.7189 17.8853 15.219C17.3852 15.7191 16.7069 16.0001 15.9997 16.0001Z" fill="white"/>
</svg>
