<svg width="24" height="25" viewBox="0 0 24 25" fill="none" xmlns="http://www.w3.org/2000/svg">
<path d="M23.4564 8.16889C23.1564 6.76264 22.6689 5.60014 21.8064 4.68139C20.5877 3.33139 18.9939 2.67514 17.1001 2.67514H16.8564C14.8502 2.73139 13.2001 3.53764 12.0376 5.00014C11.6064 4.51264 11.0627 4.02514 10.4439 3.65014C9.22515 2.91889 7.8189 2.61889 6.22515 2.73139C4.46265 2.91889 3.0564 3.70639 2.0064 5.00014C0.90015 6.46264 0.3564 8.11264 0.41265 9.81889C0.4689 11.4126 0.9564 12.8751 1.87515 14.2814C2.9064 15.8751 4.20015 17.0939 5.36265 18.0689C7.01265 19.5314 8.9064 20.8251 11.2877 22.1564C11.5314 22.2876 11.7189 22.3439 11.9627 22.3439C12.2064 22.3439 12.3939 22.2876 12.6377 22.1564C14.7189 20.9939 16.5377 19.7751 18.1877 18.3689C19.8939 16.9626 21.1126 15.6126 22.0877 14.1501C23.4002 12.2564 23.8127 10.3064 23.4564 8.16889Z" fill="#FC6B57"/>
</svg>
