<svg width="32" height="32" viewBox="0 0 32 32" fill="none" xmlns="http://www.w3.org/2000/svg">
<path d="M25.3337 5.33325H6.66699C5.60613 5.33325 4.58871 5.75468 3.83857 6.50482C3.08842 7.25497 2.66699 8.27239 2.66699 9.33325V22.6666C2.66699 23.7274 3.08842 24.7449 3.83857 25.495C4.58871 26.2452 5.60613 26.6666 6.66699 26.6666H25.3337C26.3945 26.6666 27.4119 26.2452 28.1621 25.495C28.9122 24.7449 29.3337 23.7274 29.3337 22.6666V9.33325C29.3337 8.27239 28.9122 7.25497 28.1621 6.50482C27.4119 5.75468 26.3945 5.33325 25.3337 5.33325ZM24.5697 7.99992L16.8003 14.3999C16.5783 14.5688 16.3086 14.6634 16.0297 14.6701C15.7508 14.6768 15.4769 14.5953 15.247 14.4373L7.43099 7.99992H24.5697ZM25.3337 23.9999H6.66699C6.31337 23.9999 5.97423 23.8594 5.72418 23.6094C5.47413 23.3593 5.33366 23.0202 5.33366 22.6666V9.73325L13.6003 16.5333C14.2882 17.0483 15.1249 17.3258 15.9843 17.3239C16.8737 17.3226 17.7386 17.032 18.4483 16.4959L26.667 9.73325V22.6666C26.667 23.0202 26.5265 23.3593 26.2765 23.6094C26.0264 23.8594 25.6873 23.9999 25.3337 23.9999Z" fill="white"/>
</svg>
