<svg width="48" height="48" viewBox="0 0 48 48" fill="none" xmlns="http://www.w3.org/2000/svg">
<path d="M42.4001 36.2001C41.0001 36 39.6001 35.8 38.0001 35.8C33.0001 35.8 28.2001 37.2001 24.0001 40C19.8001 37.4001 15.0001 35.8 10.0001 35.8C8.60009 35.8 7.00009 36 5.60009 36.2001C4.60009 36.4001 3.80009 37.4 4.00009 38.6C4.20009 39.8 5.20009 40.4001 6.40009 40.2001C7.60009 40 8.80009 39.8 10.0001 39.8C14.6001 39.8 19.0001 41.2001 22.8001 44C23.4001 44.6 24.4001 44.6 25.2001 44C30.0001 40.6 36.0001 39.2001 41.6001 40.2001C42.6001 40.4001 43.8001 39.6 44.0001 38.6C44.2001 37.4 43.4001 36.4001 42.4001 36.2001ZM42.4001 4.20005C41.0001 4.00005 39.6001 3.80005 38.0001 3.80005C33.0001 3.80005 28.2001 5.20005 24.0001 8.00005C19.8001 5.20005 15.0001 3.80005 10.0001 3.80005C8.60009 3.80005 7.00009 4.00005 5.60009 4.20005C4.80009 4.20005 4.00009 5.20005 4.00009 6.00005V30C4.00009 31.2001 4.80009 32 6.00009 32C6.20009 32 6.20009 32 6.40009 32C7.60009 31.8 8.80009 31.6 10.0001 31.6C14.6001 31.6 19.0001 33 22.8001 35.8C23.4001 36.4 24.4001 36.4 25.2001 35.8C30.0001 32.4 36.0001 31 41.6001 32C42.6001 32.2001 43.8001 31.4 44.0001 30.4C44.0001 30.2 44.0001 30.2001 44.0001 30V6.00005C44.0001 5.20005 43.2001 4.20005 42.4001 4.20005Z" fill="white"/>
</svg>
