<svg width="16" height="16" viewBox="0 0 16 16" fill="none" xmlns="http://www.w3.org/2000/svg">
<path d="M4 13.0001C3.817 13.0001 3.635 12.9501 3.474 12.8511C3.32918 12.7612 3.20965 12.6359 3.12671 12.487C3.04378 12.3381 3.00016 12.1705 3 12.0001V4.00007C3 3.65307 3.18 3.33106 3.474 3.14906C3.61914 3.05983 3.7846 3.00897 3.95481 3.00127C4.12502 2.99357 4.29439 3.02929 4.447 3.10507L12.447 7.10506C12.6131 7.18827 12.7528 7.31605 12.8504 7.47411C12.948 7.63218 12.9997 7.81429 12.9997 8.00006C12.9997 8.18584 12.948 8.36795 12.8504 8.52602C12.7528 8.68408 12.6131 8.81186 12.447 8.89506L4.447 12.8951C4.307 12.9651 4.152 13.0001 4 13.0001Z" fill="white"/>
</svg>
