<svg width="32" height="32" viewBox="0 0 32 32" fill="none" xmlns="http://www.w3.org/2000/svg">
<path d="M15.9996 31.4999C23.6947 31.4999 29.9547 25.2399 29.9547 17.5453C29.9547 12.228 26.864 7.30199 22.0817 4.99645C21.6163 4.77086 21.0893 4.7401 20.6021 4.91179C20.1121 5.08257 19.7185 5.43352 19.4943 5.90044C19.0307 6.86254 19.4366 8.02239 20.3987 8.48644C23.8499 10.1505 26.0797 13.7062 26.0797 17.5453C26.0797 23.1033 21.5576 27.6249 15.9996 27.6249C10.4416 27.6249 5.91993 23.1033 5.91993 17.5453C5.91993 13.7062 8.15028 10.1505 11.6015 8.48693C12.5636 8.02337 12.9694 6.86303 12.5059 5.89995C12.2807 5.4326 11.8862 5.08159 11.3961 4.9113C10.908 4.74058 10.3811 4.77177 9.91938 4.99644C5.13568 7.3015 2.04492 12.2276 2.04492 17.5453C2.04492 25.2399 8.30542 31.4999 15.9996 31.4999Z" fill="#374557"/>
<path d="M16 11.757C17.0681 11.757 17.9375 10.8881 17.9375 9.81946V2.4375C17.9375 1.36896 17.0681 0.5 16 0.5C14.932 0.5 14.0625 1.36896 14.0625 2.4375V9.81946C14.0625 10.8881 14.9319 11.757 16 11.757Z" fill="#374557"/>
</svg>
