<svg width="32" height="33" viewBox="0 0 32 33" fill="none" xmlns="http://www.w3.org/2000/svg">
<path d="M20.0001 16.5C20.0011 16.6755 19.9675 16.8494 19.9011 17.0119C19.8348 17.1743 19.737 17.3221 19.6134 17.4467L14.2801 22.78C14.029 23.0311 13.6885 23.1721 13.3334 23.1721C12.9783 23.1721 12.6378 23.0311 12.3868 22.78C12.1357 22.5289 11.9946 22.1884 11.9946 21.8333C11.9946 21.4783 12.1357 21.1377 12.3868 20.8867L16.7868 16.5L12.4001 12.1133C12.1816 11.8583 12.0675 11.5302 12.0805 11.1946C12.0934 10.859 12.2325 10.5407 12.47 10.3032C12.7075 10.0658 13.0258 9.92668 13.3613 9.91372C13.6969 9.90076 14.025 10.0149 14.2801 10.2333L19.6134 15.5667C19.8597 15.815 19.9986 16.1502 20.0001 16.5Z" fill="#A098AE"/>
</svg>
