<svg width="18" height="18" viewBox="0 0 18 18" fill="none" xmlns="http://www.w3.org/2000/svg">
<path d="M9.00001 6.86665C9.09359 6.86611 9.18637 6.88405 9.27301 6.91944C9.35965 6.95483 9.43845 7.00697 9.5049 7.07288L12.3493 9.91732C12.4832 10.0512 12.5585 10.2328 12.5585 10.4222C12.5585 10.6116 12.4832 10.7932 12.3493 10.9271C12.2154 11.061 12.0338 11.1362 11.8445 11.1362C11.6551 11.1362 11.4735 11.061 11.3396 10.9271L9.00001 8.58043L6.66045 10.92C6.52441 11.0365 6.34943 11.0974 6.17046 11.0904C5.99149 11.0835 5.82172 11.0093 5.69507 10.8827C5.56843 10.7561 5.49424 10.5863 5.48732 10.4073C5.48041 10.2283 5.54129 10.0534 5.65778 9.91732L8.50223 7.07288C8.63468 6.9415 8.81345 6.86744 9.00001 6.86665Z" fill="white"/>
</svg>
