<svg width="24" height="24" viewBox="0 0 24 24" fill="none" xmlns="http://www.w3.org/2000/svg">
<path d="M11.9998 9.00006C12.1314 8.9993 12.2619 9.02452 12.3837 9.07429C12.5056 9.12405 12.6164 9.19738 12.7098 9.29006L16.7098 13.2901C16.8981 13.4784 17.0039 13.7338 17.0039 14.0001C17.0039 14.2664 16.8981 14.5218 16.7098 14.7101C16.5215 14.8984 16.2661 15.0042 15.9998 15.0042C15.7335 15.0042 15.4781 14.8984 15.2898 14.7101L11.9998 11.4101L8.70982 14.7001C8.51851 14.8639 8.27244 14.9495 8.02076 14.9398C7.76909 14.93 7.53035 14.8257 7.35225 14.6476C7.17416 14.4695 7.06983 14.2308 7.06011 13.9791C7.05038 13.7274 7.13599 13.4814 7.29982 13.2901L11.2998 9.29006C11.4861 9.10531 11.7375 9.00116 11.9998 9.00006Z" fill="#4CBC9A"/>
</svg>
