<svg width="40" height="41" viewBox="0 0 40 41" fill="none" xmlns="http://www.w3.org/2000/svg">
<path d="M14.1665 20.1375C17.8331 20.1375 20.8331 17.1375 20.8331 13.4709C20.8331 9.8042 17.8331 6.8042 14.1665 6.8042C10.4998 6.8042 7.49981 9.8042 7.49981 13.4709C7.49981 17.1375 10.4998 20.1375 14.1665 20.1375ZM21.6665 18.6375C24.4998 20.9709 28.6665 20.4709 30.9998 17.6375C33.3331 14.8042 32.8331 10.6375 29.9998 8.3042C28.8331 7.3042 27.3331 6.8042 25.8331 6.8042C24.3331 6.8042 22.8331 7.3042 21.6665 8.3042C24.4998 10.6375 24.9998 14.6375 22.6665 17.6375C22.4998 17.9709 21.9998 18.3042 21.6665 18.6375ZM38.1665 33.3042C37.1665 27.1375 31.9998 22.6375 25.8331 22.6375C24.3331 22.6375 22.9998 22.8042 21.6665 23.3042C25.9998 24.8042 29.1665 28.6375 29.8331 33.1375C29.9998 33.9709 29.3331 34.9709 28.3331 34.9709H28.1665H36.4998C37.4998 34.9709 38.1665 34.3042 38.1665 33.3042C38.1665 33.4709 38.1665 33.3042 38.1665 33.3042ZM14.1665 22.6375C7.99981 22.6375 2.66647 27.1375 1.83314 33.3042C1.66647 34.1375 2.33314 35.1375 3.33314 35.1375H3.49981H24.8331C25.8331 35.1375 26.4998 34.4709 26.4998 33.4709V33.3042C25.6665 27.1375 20.3331 22.6375 14.1665 22.6375Z" fill="#4CBC9A"/>
</svg>
