<svg width="40" height="40" viewBox="0 0 40 40" fill="none" xmlns="http://www.w3.org/2000/svg">
<path d="M25.001 20C25.0022 20.2194 24.9602 20.4368 24.8772 20.6399C24.7943 20.8429 24.6721 21.0276 24.5176 21.1834L17.851 27.85C17.5371 28.1639 17.1115 28.3402 16.6676 28.3402C16.2238 28.3402 15.7981 28.1639 15.4843 27.85C15.1705 27.5362 14.9941 27.1105 14.9941 26.6667C14.9941 26.2229 15.1705 25.7972 15.4843 25.4834L20.9843 20L15.501 14.5167C15.2279 14.1979 15.0852 13.7877 15.1014 13.3683C15.1176 12.9488 15.2915 12.5509 15.5884 12.2541C15.8852 11.9573 16.2831 11.7834 16.7025 11.7672C17.122 11.751 17.5321 11.8936 17.851 12.1667L24.5176 18.8334C24.8255 19.1438 24.9991 19.5628 25.001 20Z" fill="#FEC64F"/>
</svg>
